<svg xmlns="http://www.w3.org/2000/svg" viewBox="0 0 750 500"><g id="freepik--background-complete--inject-19"><path d="M115.21,209.4l-13.13.27-6.66.12c-2.22,0-4.46,0-6.69.05h-.45v-.45l0-11.19v-.51h.5l13.24.06c4.41,0,8.82.11,13.24.16h.27v.27c0,1.89-.09,3.78-.13,5.65Zm0,0-.14-5.66c0-1.86-.12-3.7-.14-5.53l.28.27c-4.42.05-8.83.16-13.24.16l-13.24.07.5-.5-.06,11.19-.44-.45c2.18,0,4.35,0,6.54.06l6.58.11Z" style="fill:#ebebeb"></path><path d="M100.44,223.51l-13.13.27-6.66.12c-2.23,0-4.46,0-6.69,0h-.45v-.44l-.05-11.19v-.51H74l13.24.06c4.41,0,8.82.11,13.24.16h.27v.27c0,1.89-.09,3.78-.13,5.65Zm0,0-.15-5.66c0-1.86-.11-3.7-.13-5.53l.28.27c-4.42,0-8.83.16-13.24.16L74,212.82l.49-.5,0,11.19-.44-.45c2.18,0,4.35,0,6.54.06l6.58.11Z" style="fill:#ebebeb"></path><path d="M130,223.51l-13.13.27-6.66.12c-2.22,0-4.46,0-6.69,0h-.44v-.44l0-11.19v-.51h.5l13.24.06c4.41,0,8.83.11,13.24.16h.27v.27c0,1.89-.08,3.78-.13,5.65Zm0,0-.14-5.66c-.05-1.86-.12-3.7-.13-5.53l.27.27c-4.41,0-8.83.16-13.24.16l-13.24.07.5-.5-.06,11.19-.44-.45c2.18,0,4.36,0,6.54.06l6.58.11Z" style="fill:#ebebeb"></path><path d="M582.54,339l-13.13.28-6.66.11c-2.22.05-4.46,0-6.69.06h-.45V339l-.05-11.19v-.5h.5l13.24.06c4.41,0,8.82.12,13.24.17h.27v.27c0,1.9-.09,3.79-.13,5.65Zm0,0-.14-5.65c0-1.87-.12-3.71-.14-5.54l.28.27c-4.42.05-8.83.16-13.24.17l-13.24.06.5-.5L556.5,339l-.44-.45c2.18,0,4.36,0,6.54.06l6.58.11Z" style="fill:#ebebeb"></path><path d="M567.77,353.1l-13.13.28-6.66.11c-2.23.05-4.46,0-6.69.06h-.45v-.45l-.05-11.19v-.5h.51l13.24.06c4.41,0,8.82.12,13.24.17H568v.27c0,1.9-.09,3.79-.13,5.65Zm0,0-.15-5.65c0-1.87-.11-3.71-.13-5.54l.28.27c-4.42.05-8.83.16-13.24.17l-13.24.06.49-.5,0,11.19-.44-.45c2.18,0,4.35,0,6.54.06l6.58.11Z" style="fill:#ebebeb"></path><path d="M597.31,353.1l-13.13.28-6.66.11c-2.22.05-4.46,0-6.69.06h-.44v-.45l0-11.19v-.5h.5l13.24.06c4.41,0,8.83.12,13.24.17h.28v.27c0,1.9-.08,3.79-.13,5.65Zm0,0-.14-5.65c0-1.87-.11-3.71-.13-5.54l.27.27c-4.41.05-8.83.16-13.24.17l-13.24.06.5-.5-.06,11.19-.44-.45c2.18,0,4.36,0,6.54.06l6.58.11Z" style="fill:#ebebeb"></path><path d="M661.27,223.51l-13.12.27-6.66.12c-2.23,0-4.47,0-6.7,0h-.44v-.44l-.06-11.19v-.51h.5l13.24.06c4.42,0,8.83.11,13.24.16h.28v.27c0,1.89-.09,3.78-.13,5.65Zm0,0-.14-5.66c0-1.86-.11-3.7-.13-5.53l.27.27c-4.41,0-8.82.16-13.24.16l-13.24.07.5-.5,0,11.19-.45-.45c2.18,0,4.36,0,6.55.06l6.58.11Z" style="fill:#ebebeb"></path><path d="M224,319.85l-13.12.28-6.66.11c-2.23.05-4.47,0-6.7.05h-.44v-.45L197,308.66v-.5h.5l13.24.06c4.41,0,8.83.11,13.24.16h.28v.27c0,1.9-.08,3.78-.13,5.65Zm0,0-.14-5.66c-.05-1.86-.11-3.7-.13-5.53l.27.27c-4.41.05-8.83.16-13.24.16l-13.24.07.5-.5L198,319.85l-.45-.45c2.18,0,4.36,0,6.55.06l6.58.11Z" style="fill:#ebebeb"></path><path d="M661.27,65.07l-13.12.28-6.66.11c-2.23.05-4.47,0-6.7.06h-.44v-.45l-.06-11.19v-.5h.5l13.24.07c4.42,0,8.83.11,13.24.16h.28v.27c0,1.9-.09,3.79-.13,5.66Zm0,0-.14-5.65c0-1.86-.11-3.71-.13-5.54l.27.28c-4.41.05-8.82.15-13.24.16l-13.24.06.5-.5,0,11.19-.45-.44c2.18,0,4.36,0,6.55.05l6.58.11Z" style="fill:#ebebeb"></path><path d="M676,79.18l-13.12.28-6.66.11c-2.23.05-4.46,0-6.7.06h-.44v-.45L649.06,68v-.5h.5l13.24.07c4.42,0,8.83.11,13.24.16h.28V68c0,1.9-.09,3.79-.13,5.66Zm0,0-.14-5.65c0-1.86-.11-3.71-.13-5.54l.27.28c-4.41,0-8.82.15-13.24.16l-13.24.06.5-.5,0,11.19-.45-.44c2.19,0,4.36,0,6.55.05l6.58.11Z" style="fill:#ebebeb"></path><path d="M100.44,65.09l-13.13.27-6.66.12c-2.23,0-4.46,0-6.69,0h-.45v-.45L73.46,53.9v-.51H74l13.24.06c4.41,0,8.82.11,13.24.16h.27v.27c0,1.89-.09,3.78-.13,5.65Zm0,0-.15-5.66c0-1.86-.11-3.7-.13-5.53l.28.27c-4.42,0-8.83.16-13.24.16L74,54.39l.49-.49,0,11.18L74,64.64c2.18,0,4.35,0,6.54,0l6.58.12Z" style="fill:#ebebeb"></path><path d="M500.75,144.57l13.13-.28,6.66-.11c2.22-.05,4.46,0,6.69-.06h.45v.45l.05,11.19v.5h-.5L514,156.2c-4.41,0-8.83-.12-13.24-.17h-.27v-.27c0-1.9.08-3.79.13-5.65Zm0,0,.14,5.65c.05,1.87.12,3.71.13,5.54l-.27-.27c4.41-.05,8.83-.16,13.24-.17l13.24-.06-.5.5.06-11.19.44.45c-2.18,0-4.36,0-6.54-.06l-6.58-.11Z" style="fill:#ebebeb"></path><path d="M515.52,130.46l13.13-.28,6.66-.11c2.22,0,4.46,0,6.69-.06h.45v.45l0,11.19v.5H542l-13.24-.06c-4.41,0-8.82-.12-13.24-.17h-.27v-.27c0-1.9.09-3.79.13-5.65Zm0,0,.14,5.65c.05,1.87.12,3.71.14,5.54l-.28-.27c4.42,0,8.83-.16,13.24-.17l13.24-.06-.5.5.06-11.19.44.45c-2.18,0-4.35,0-6.54-.06l-6.58-.11Z" style="fill:#ebebeb"></path><path d="M229.44,204a32,32,0,0,1-2.71,13.64c-4,9-13,14.52-17.08,23.35-.12,1.16-.19,2.34-.2,3.54v.06s0,0,0,0h0s0,0,0,0a.13.13,0,0,1-.11.08c0-.15-.05-.29-.07-.43s-.09-.52-.12-.78-.1-.74-.13-1.11c0,0,0-.17,0-.22-.87-10.43,5.16-20.1,9.38-29.29,2.42-5.26,3.54-10.93,5.86-16.19.55-1.25,1.22-3.74,3-2.73C229.16,195.14,229.38,202.1,229.44,204Z" style="fill:#ebebeb"></path><path d="M225.44,204.24c-1.19-.78-2.06,2.41-2.42,3.18-3,6.23-6.33,12.06-9.4,18.19a37.83,37.83,0,0,0-4.38,15.23h0a15,15,0,0,0-.1,2.69c0,.36,0,.74.07,1.11a.14.14,0,0,0,.08.1s0,0,0,0a.13.13,0,0,0,.11-.08s0,0,0,0h0s0,0,0,0v-.06a2.64,2.64,0,0,0,0-.29h0c0-.24,0-.48,0-.71s0-.68,0-1c.65-12.07,13.9-19.19,16.41-30.77C226.13,210.39,226.94,205.22,225.44,204.24ZM210,237.43a50.55,50.55,0,0,1,5-13.38c1.81-3.5,3.65-7,5.47-10.47l2.58-5c.22-.43,1.18-3.66,1.89-3.75,1.19-.16.85,4.35.78,5C224.59,220.69,213.33,227.59,210,237.43Z" style="fill:#fff"></path><path d="M202.36,314.39c0,.15-.22.32-.39.14-7.14-7.92-19.16-6.32-26.76-13.73a47.4,47.4,0,0,1-7.53-10.3,38.26,38.26,0,0,1-4-8.56c-.11-.4-.82-2.11-.46-2.77,2.83-5,14.23,7.83,16.2,9.74,7.72,7.4,14.79,14.16,21,22.66q1,1.32,1.92,2.7S202.38,314.34,202.36,314.39Z" style="fill:#ebebeb"></path><path d="M202.37,314.27q-.94-1.38-1.92-2.7c-3.43-3.51-7.24-6.67-11-9.83-5.86-4.93-11.16-10.3-16.62-15.65-.73-.73-3.51-4.45-4.84-3.27s1.19,5.43,1.81,6.49a36.82,36.82,0,0,0,14.3,13.58c5.95,3.37,12.3,6.18,17.47,10.65l.78.85C202.38,314.34,202.39,314.3,202.37,314.27Zm-16-10.79c-11.66-5.79-19-17.92-17.51-19.49.57-.59,1.82.67,2.2,1,.77.73,1.53,1.47,2.29,2.23,1.51,1.5,3,3,4.48,4.54q4.1,4.14,8.52,7.91C190.6,303.39,195,307,199,310.88A80.5,80.5,0,0,0,186.33,303.48Z" style="fill:#fff"></path><path d="M192.43,294.09a.1.1,0,0,1-.05.12.1.1,0,0,1-.13,0l-.39-.67c-.48-.83-.93-1.66-1.37-2.49l-.24-.45a.31.31,0,0,1-.09-.07c-5-8.95-14.87-13.95-18.54-23.75a41.15,41.15,0,0,1-2.24-13.66c0-2-1.16-8.38,1.57-9.21,2.13-.65,4.3,2.6,5.19,4,2.86,4.37,4.26,9.77,5.73,14.72s2.62,9.75,3.92,14.63a84.15,84.15,0,0,0,4.79,12.91C191.18,291.43,191.8,292.76,192.43,294.09Z" style="fill:#ebebeb"></path><path d="M190.58,290.1c-.5-.94-1-1.87-1.58-2.79-2-4.32-4-8.65-5.93-13-2.88-6.45-4.53-13.3-7.06-19.88-.32-.81-1.2-4.51-2.54-3.18s.56,12.23,2.33,17.17a24.23,24.23,0,0,0,4.19,7.26,114.52,114.52,0,0,1,9.87,14l.63,1.3c.44.83.89,1.66,1.37,2.49-.23-.51-.46-1-.7-1.52.41.73.82,1.48,1.22,2.23a.1.1,0,0,0,.05-.12C191.8,292.76,191.18,291.43,190.58,290.1Zm-9-13.36c-2.53-3.05-4.65-6-5.63-9.91a110.29,110.29,0,0,1-2.17-11.21c-.12-.78-.56-3.72.29-3.83s1.92,3.89,2.1,4.37c.64,1.78,1.22,3.57,1.78,5.38,1.15,3.61,2.26,7.22,3.72,10.72,1.76,4.21,3.74,8.34,5.77,12.44A86,86,0,0,0,181.54,276.74Z" style="fill:#fff"></path><path d="M232.08,351.7a.08.08,0,0,1-.16,0c0-.23,0-.46,0-.69.07-.85.15-1.69.25-2.52,0-.15,0-.3,0-.46a.14.14,0,0,1,0-.09c.84-9.1-3.91-17.76-1.67-26.82a36.82,36.82,0,0,1,5.24-11.19c1-1.49,3.37-6.75,5.8-6,1.89.6,1.85,4.08,1.81,5.55-.09,4.65-1.79,9.33-3.2,13.71s-3,8.5-4.49,12.75a74.68,74.68,0,0,0-3,11.91C232.51,349.11,232.29,350.4,232.08,351.7Z" style="fill:#ebebeb"></path><path d="M232.73,347.83c.11-.94.19-1.89.25-2.85.72-4.18,1.43-8.37,2.18-12.54,1.13-6.21,3.37-12.08,4.83-18.19.17-.76,1.39-3.93-.27-3.63s-5.75,9.29-6.94,13.82a21.77,21.77,0,0,0-.57,7.45,102.72,102.72,0,0,1,.19,15.29c-.06.43-.13.86-.19,1.28-.1.83-.18,1.67-.25,2.52.09-.49.17-1,.25-1.47-.06.75-.14,1.5-.22,2.25a.07.07,0,0,0,.09-.06C232.29,350.4,232.51,349.11,232.73,347.83Zm.09-14.39c-.33-3.51-.39-6.76.85-10.13a101.64,101.64,0,0,1,4.05-9.34c.31-.63,1.46-3,2.14-2.67s-.54,3.83-.65,4.27c-.43,1.63-.91,3.25-1.4,4.86-1,3.23-2,6.45-2.67,9.76-.83,4-1.45,8-2,12.07A78.07,78.07,0,0,0,232.82,333.44Z" style="fill:#fff"></path><path d="M231.12,359.18a1.37,1.37,0,0,1-.61-.42C222.59,353,213,350.19,205,344.39a26.7,26.7,0,0,1-8.48-9.62c-.83-1.66-3.68-7.42-2.18-9.32,4.46-5.74,28.78,22.76,36.61,32.76a1.81,1.81,0,0,1,.36.43C231.52,359,231.4,359.23,231.12,359.18Z" style="fill:#ebebeb"></path><path d="M231.29,358.64c-.15-.16-.32-.3-.49-.45-9.24-9-18.49-18.14-28.26-26.55-.69-.59-2.53-2.61-3.47-1.32s1.1,4.41,1.79,5.5a35,35,0,0,0,12.75,12c3.31,1.87,6.74,3.51,9.95,5.56,2,1.3,4,2.71,5.88,4.16l1.68,1.62C231.4,359.23,231.52,359,231.29,358.64Zm-14.76-9.9c-6.52-3.43-12.26-7.86-15.9-14.42-.23-.41-1.49-2.69-1-3.47s2.69,1.14,3.26,1.65c1.45,1.3,2.85,2.64,4.28,4q4.34,4,8.62,8.06c3.66,3.44,7.29,6.91,10.93,10.39A85.1,85.1,0,0,0,216.53,348.74Z" style="fill:#fff"></path><path d="M209.06,272.89a.43.43,0,0,1-.05.36.46.46,0,0,1-.46.16.45.45,0,0,1-.25-.09.19.19,0,0,1-.14-.09c-3.07-5.23-8.41-10.76-11.65-15.85a46.91,46.91,0,0,1-5.44-12.71,63.59,63.59,0,0,1-2.42-15.26c-.06-2.45-.55-8.33,1.89-10,5-3.56,8.13,15.19,8.72,17.35C202.57,248.76,205.87,260.81,209.06,272.89Z" style="fill:#ebebeb"></path><path d="M208.81,272.81c-2-6.06-4.12-12.08-6.21-18.12-1.34-3.92-2.7-7.84-3.82-11.83-1.08-3.8-1.62-7.71-2.65-11.52-.26-1-1-4.93-2.55-4.41-3,1,1.28,20.5,4.58,27.15,1.9,3.82,4.44,7.28,6.47,11,1.24,2.31,2.35,4.67,3.47,7l.45,1.26a.46.46,0,0,0,.46-.16Zm-3.56-7.52c-2-3.79-4.49-7.26-6.42-11.06a50.39,50.39,0,0,1-4.08-12.11c-.46-2.12-.84-4.24-1.2-6.38-.21-1.31-1.07-7,0-7.89s1.87,2.68,2.11,3.56c.29,1,.49,2.09.7,3.13.43,2.14.86,4.28,1.41,6.4,1,3.78,2.21,7.5,3.47,11.2,1.83,5.35,3.64,10.7,5.5,16C206.23,267.2,205.74,266.24,205.25,265.29Z" style="fill:#fff"></path><path d="M256.89,294.82c-10,6.27-23,5.21-31.49,18.62a.06.06,0,0,1-.11,0,0,0,0,0,1,0-.06q1-2.1,2.2-4.13a66.42,66.42,0,0,1,16.59-19.06,50,50,0,0,1,13.15-7.34c2.41-.89,7.79-3.35,10.16-2.1C272.51,283.44,258.71,293.69,256.89,294.82Z" style="fill:#ebebeb"></path><path d="M260.26,284.58c-1.22-1.24-4.91,1.31-6,1.84A73,73,0,0,0,237.53,298a70.19,70.19,0,0,0-9.85,11l-.2.2q-1.18,2-2.2,4.13a0,0,0,0,0,0,.06c1-1.52,2.09-3,3.18-4.49a57.49,57.49,0,0,1,11.42-8.44c6-3.45,13.19-5.71,17.94-10.94C258.49,288.83,261.43,285.76,260.26,284.58Zm-2.14,3.93a20.39,20.39,0,0,1-3.68,3.45c-5.16,3.84-11.45,6-16.92,9.42a58,58,0,0,0-7.45,5.44,68,68,0,0,1,5.27-6.06,72.45,72.45,0,0,1,14.6-11.43c2.48-1.47,8.74-5,9.69-4.35S258.54,288,258.12,288.51Z" style="fill:#fff"></path><path d="M259.75,246.66A54.15,54.15,0,0,1,256.49,259a53.21,53.21,0,0,1-14.06,20l-.33.3c-.17.37-.35.74-.55,1.09a2,2,0,0,1-.13.25l0,.05h0a.11.11,0,0,1-.16-.12c.13-.48.26-1,.38-1.45,2.53-9.93,3.34-20.12,7.36-29.66.88-2.09,6.14-15.86,10.43-12.1C261.38,239.06,260.06,244.52,259.75,246.66Z" style="fill:#ebebeb"></path><path d="M257.05,243.12c-1.43-1.32-2.86.8-3.57,1.88a41,41,0,0,0-3.59,8.23c-1,2.87-1.9,5.79-2.67,8.74a119,119,0,0,1-5,16.08c-.19.34-.4.67-.59,1s-.25,1-.38,1.45a.11.11,0,0,0,.16.12h0a1.46,1.46,0,0,0,.17-.3c.08-.12.15-.25.22-.37.22-.34.45-.68.66-1A144.25,144.25,0,0,0,249.67,266c2.87-5.6,6.25-11.71,7.56-17.9C257.51,246.8,258.25,244.23,257.05,243.12Zm.08,2.28a14.77,14.77,0,0,1-.26,2,26.8,26.8,0,0,1-1.64,5.36c-1.35,3.37-2.86,6.68-4.45,9.94-2,4.18-4.33,8.17-6.67,12.14a105.65,105.65,0,0,0,3-10.21c.84-3.22,1.68-6.46,2.78-9.61s2.31-7,4.23-9.93C255,243.74,257.24,243.29,257.13,245.4Z" style="fill:#fff"></path><path d="M206,204.45l0,.5a.29.29,0,0,1-.46.22.31.31,0,0,1-.15-.28c0-.3,0-.61,0-.91h0c0-.25,0-.49,0-.74-.11-.44-.23-.88-.38-1.31-1.54-4.68-5.18-9.28-7.34-13.5a65,65,0,0,1-4.93-12,31.85,31.85,0,0,1-1.21-13c.17-1.18.41-4.19,2-4.52,2-.41,3.84,3.77,4.56,4.93a53.58,53.58,0,0,1,5.67,13C206.49,185.9,206.63,195.08,206,204.45Z" style="fill:#ebebeb"></path><path d="M202.74,184.18c-1-4.33-2.21-8.63-3.54-12.87a28.73,28.73,0,0,0-2.09-5.37c-.27-.48-.68-1.57-1.42-1.51-4,.29,1.62,16.13,2.34,18.19,1.46,4.11,3.21,8.09,4.82,12.14a43.07,43.07,0,0,1,2.18,7.16c.14.68.26,1.36.35,2.05h0c0,.27.06.55.1.83,0,.12,0,.24,0,.36A.29.29,0,0,0,206,205l0-.5a18.16,18.16,0,0,0-.26-2.19A124.42,124.42,0,0,0,202.74,184.18ZM205,199.34c-1-3.49-2.64-6.88-3.91-10-1.44-3.53-2.81-7.1-3.93-10.75-.56-1.82-1.06-3.65-1.48-5.5-.37-1.62-1.4-7.56-.19-7.93.83-.25,2.51,3.83,2.81,4.73.63,1.8,1.14,3.64,1.67,5.47,1.07,3.76,2.05,7.54,2.9,11.35A123.21,123.21,0,0,1,205,199.34Z" style="fill:#fff"></path><path d="M225.06,259.47c-.09.15-.19.28-.28.42a.31.31,0,0,1-.5-.36l.49-.77h0l.4-.62c.12-.44.23-.88.32-1.33,1-4.82.18-10.62.43-15.36a65.26,65.26,0,0,1,1.74-12.83,31.88,31.88,0,0,1,5.49-11.85c.73-.94,2.45-3.42,4-2.89,2,.66,1.43,5.18,1.48,6.54a53.65,53.65,0,0,1-1.6,14.05C234.79,243.68,230.31,251.69,225.06,259.47Z" style="fill:#ebebeb"></path><path d="M232.41,240.31c1.28-4.26,2.43-8.57,3.41-12.91a29.67,29.67,0,0,0,.88-5.69c0-.55.2-1.7-.48-2-3.58-1.75-6.69,14.76-7.09,16.91-.81,4.28-1.29,8.61-1.93,12.91a42.64,42.64,0,0,1-1.71,7.29q-.33,1-.72,1.95h0l-.33.77c-.05.11-.11.22-.17.33a.3.3,0,0,0,.51,0c.09-.14.19-.27.28-.42a19.19,19.19,0,0,0,.87-2A122.92,122.92,0,0,0,232.41,240.31Zm-5.63,14.25c.85-3.53,1.16-7.28,1.63-10.62.53-3.78,1.14-7.56,2-11.28.43-1.85.91-3.68,1.48-5.5.5-1.59,2.58-7.24,3.82-6.95.84.2.24,4.57.06,5.5-.37,1.87-.85,3.73-1.31,5.57-1,3.78-2,7.54-3.19,11.27A124.61,124.61,0,0,1,226.78,254.56Z" style="fill:#fff"></path><path d="M244.84,272a238.28,238.28,0,0,1-12.12,24c-3.51,6-7.06,12.08-9.14,18.75-2.49,8-2.59,17.54-.6,26.37-1.65-3.28-3.25-6.59-4.83-9.94-3.21-6.8-6.35-13.74-7.93-21.13-.15-.73-.27-1.47-.4-2.2a.24.24,0,0,0,.08-.15,90.61,90.61,0,0,1,5.39-26.52,75.61,75.61,0,0,1,9.23-11.51c3.53-3.64,6.92-7.2,9.47-11.63.15-.25-.19-.52-.37-.27-4.12,5.65-10.73,10.45-15.42,16.2.46-1,.93-2.07,1.42-3.1,4.71-9.84,11.12-19.27,10.15-30.64,0-.39-.59-.28-.58.08.43,12.5-8.63,23.68-13.41,34.68-3.55,8.18-6.46,17.24-6.71,26.29a142.93,142.93,0,0,1,.1-15.35c1.39-30.82,1.7-61.76-5.24-92-.07-.3-.53-.23-.47.07,6.67,32.59,3.93,65.29,3.07,98.22,0,.37,0,.74,0,1.12a59.91,59.91,0,0,0-6.1-13.45.19.19,0,0,0-.34.16c2.69,6.43,4.28,13.1,6.51,19.65a62.37,62.37,0,0,0,2,13.9,101.32,101.32,0,0,0,6,15.77c-4.56-6.55-9.18-13.05-13.26-19.94A273.13,273.13,0,0,1,184.84,277c-.07-.16-.31-.05-.25.12a228.6,228.6,0,0,0,15.86,34.38c5.36,9.3,11.2,18.88,18.49,26.88,5.79,12,12.15,24.18,20.87,34.18a.48.48,0,0,0,.75-.61c-1.48-2.27-2.91-4.56-4.32-6.85-.72-4.61-2.24-9.07-2.72-13.77a69.18,69.18,0,0,1,.29-16.52c.06-.4-.54-.46-.62-.07-1.52,7.35-2.32,16.7-.34,24.66q-3-5.1-5.71-10.29c-4-12.45-5.15-26.23-.19-38.47,2.54-6.28,6.11-12,9.36-18a147.14,147.14,0,0,0,9-20.5A.25.25,0,0,0,244.84,272Z" style="fill:#ebebeb"></path><rect x="229.37" y="365.35" width="16.27" height="21.38" transform="translate(475.01 752.07) rotate(180)" style="fill:#c7c7c7"></rect><path d="M487.62,248.76c.43,4.2,2.82,8.49,4.78,12.14a103.56,103.56,0,0,0,7.62,12c2.6,3.58,5.38,7,8.2,10.41l.09.09c.18.23.37.45.55.67s.38.59.59.89a.23.23,0,0,0,.25.08.17.17,0,0,0,.11-.27c-.1-.17-.21-.33-.3-.5-4.12-6.93-3.13-15.55-6.33-22.84-1.76-4-4.6-7.48-7.19-11-1.42-1.93-2.86-4.64-4.65-6.24-.47-.42-.8-1-1.53-1C487.56,243.3,487.47,247.29,487.62,248.76Z" style="fill:#ebebeb"></path><path d="M491,253.34a39.64,39.64,0,0,0,1.36,4.07A81.43,81.43,0,0,0,500.88,273a115.61,115.61,0,0,0,7.34,10.36l.09.09c.38.46.78.9,1.18,1.34l.21.3a.17.17,0,0,0,.11-.27c-.1-.17-.21-.33-.3-.5l-.42-.46c-3.06-5.31-4.69-11.23-6.39-17.11-1.53-5.36-5.11-10.65-8.9-14.71-.57-.6-2.49-2.87-3.17-1.39C490.29,251.34,490.77,252.65,491,253.34Zm.13-2.63c.36-.27,1.39.51,1.8.89a37.32,37.32,0,0,1,5.11,6.55,29.29,29.29,0,0,1,4.09,7.76c.78,2.52,1.41,5.07,2.21,7.57a47.33,47.33,0,0,0,4.14,9.6A113.5,113.5,0,0,1,500.66,272a82.91,82.91,0,0,1-7.58-13.63,45,45,0,0,1-1.54-4.26C491.36,253.58,490.44,251.18,491.1,250.71Z" style="fill:#fff"></path><path d="M546.78,288.36s0,0,0,0" style="fill:#ebebeb"></path><path d="M541.91,352.33a.19.19,0,0,0,0,.25h0a.22.22,0,0,0,.22.07.24.24,0,0,0,.14-.09c3.35-4.38,5.86-10,10.87-12.71,3.91-2.15,7.6-3.31,10.62-6.8a33.66,33.66,0,0,0,6.67-12.23,35.18,35.18,0,0,0,1.26-6.27c.1-1,.75-3.74,0-4.64-3.3-4.21-13.23,10.9-14.54,12.93-5.8,8.95-11.45,18.61-15,28.7a.08.08,0,0,0,0,.09s0,.05.08.05Z" style="fill:#ebebeb"></path><path d="M541.93,352.58l2.54-4.45c-.82,1.5-1.64,3-2.54,4.46a.22.22,0,0,0,.22.07c1.77-2.81,3.23-5.81,5-8.61,2.14-3.34,5-5.9,7.92-8.54,4.49-4.05,9.08-8.35,11.43-14.06.4-1,2.3-5.41,1.08-6.28s-3.51,2.52-4.11,3.23a156.44,156.44,0,0,0-11.73,16.81c-3.39,5.34-6.7,10.79-9.57,16.43,0,0,0,.05.08.05l-.36.64A.19.19,0,0,0,541.93,352.58Zm5-8.71c1.66-2.86,3.35-5.69,5.12-8.48,3.2-5,6.52-10,10.13-14.79a42.61,42.61,0,0,1,3.31-3.92c.16-.17,1.28-1.21,1.75-.89.69.48-.16,2.94-.33,3.48a23.92,23.92,0,0,1-4.06,7.74c-3.69,4.87-8.72,8.37-12.85,12.81A27.84,27.84,0,0,0,546.91,343.87Z" style="fill:#fff"></path><path d="M515.12,245.15c1.5,4.51,4.49,8.53,7.62,12.06,7.24,8.16,16.66,14.44,23,23.39.25.35.49.71.72,1.06.16.55.17.4,0-.27h0c-.54-2.93-3.59-15.55-8.67-23.21-3.18-4.77-7.27-8.76-11.37-12.73-2.34-2.26-4.65-4.55-7-6.8-.76-.72-2.43-3-3.86-2.56C512.85,236.94,514.54,243.38,515.12,245.15Z" style="fill:#ebebeb"></path><path d="M520.19,246.8a23.82,23.82,0,0,0,2.42,4.61,120.26,120.26,0,0,0,14.72,18,48,48,0,0,1,7.59,9.57c.29.52.57,1,.83,1.57.25.35.49.71.72,1.06.16.55.17.4,0-.27h0c-.08-.16-.15-.31-.22-.47a66.22,66.22,0,0,0-6.36-14.49c-4.12-6.83-9.93-12.73-15.06-18.79L522.65,245a4.93,4.93,0,0,0-1.36-1.41,1,1,0,0,0-1.29.26C519.43,244.58,519.93,246.06,520.19,246.8Zm.75-2.2c1-.19,1.06.21,1.65.91l.88,1.06c.6.7,1.19,1.4,1.78,2.11l3.56,4.21c4.79,5.68,9.75,11.16,13,17.89a84.55,84.55,0,0,1,3.4,8.08,43,43,0,0,0-6.32-8.27,162.56,162.56,0,0,1-13.68-16,58,58,0,0,1-3.27-4.95,22.57,22.57,0,0,1-1.12-2.19,7,7,0,0,1-.39-1.08C520.16,245.38,519.68,244.83,520.94,244.6Z" style="fill:#fff"></path><path d="M527.45,287.91a57.44,57.44,0,0,0,2.1,10.94c2.09,7.16,6.81,14.34,8.25,21.78.05.51.13,1,.22,1.52,0,.19.07.37.11.56s.19.08.18,0c0-.35,0-.7,0-1.05h0c0-.18,0-.37,0-.55.18-8,1.57-15.93-.52-23.83-1.28-4.86-5.81-17.78-9.2-17.3C527.12,280.17,527.25,285.66,527.45,287.91Z" style="fill:#ebebeb"></path><path d="M533.33,302.65c2.15,6.4,4.12,12.79,4.69,19.5,0,.19.07.37.11.56s.19.08.18,0c0-.35,0-.7,0-1.05h0c0-.18,0-.37,0-.55A100.7,100.7,0,0,0,536.65,303a52.23,52.23,0,0,0-2.36-9.12,32.12,32.12,0,0,0-2-4.65c-.33-.55-1-1.94-1.82-1.93C527.47,287.29,532.84,301.22,533.33,302.65Zm-2.88-15c1-.05,2.53,3.92,2.82,4.6a33.69,33.69,0,0,1,1.57,4.35,69.78,69.78,0,0,1,1.79,8.33,127,127,0,0,1,1.24,12.87,74.74,74.74,0,0,0-2.6-10.54c-1-3.17-2.1-6.31-3.13-9.46-.45-1.36-.88-2.71-1.28-4.07C530.68,293.18,529.27,287.76,530.45,287.69Z" style="fill:#fff"></path><path d="M493.11,288.34c-.65,2.77,2,6.37,3.91,8a21.1,21.1,0,0,0,9.6,4.42c5.05,1.13,10.2,1.39,15,3.47s3.26,1.47,7.58,5c.09.07.17,0,.21-.08a1,1,0,0,0-.22-.78.83.83,0,0,0-.08-.12c-5.55-6.49-12.2-10.51-20.06-13.87-4.46-1.91-8.2-5.25-12.72-7C494.64,286.76,493.57,286.42,493.11,288.34Z" style="fill:#ebebeb"></path><path d="M498.69,295.13c4.57,3.77,10.19,5.39,15.88,6.54A28.32,28.32,0,0,1,529.2,309l.2.2a1,1,0,0,0-.22-.78,21.57,21.57,0,0,0-1.7-1.49,41.15,41.15,0,0,0-10.34-7.29,63.17,63.17,0,0,0-7.74-3,52.28,52.28,0,0,1-8.44-4.12c-.95-.54-3.4-2.1-4.24-1.05S497.88,294.46,498.69,295.13Zm-1.35-3.54c.72-.54,2.83.78,3.46,1.14s1.42.79,2.13,1.2c1.33.72,2.65,1.45,4,2.06,3,1.3,6.21,2.06,9.2,3.45a42.75,42.75,0,0,1,9.25,6,31.34,31.34,0,0,0-10.41-4,50.18,50.18,0,0,1-9.32-2.53,29.55,29.55,0,0,1-4.86-2.54,23.87,23.87,0,0,1-2.41-1.83C498.11,294.23,496.4,292.29,497.34,291.59Z" style="fill:#fff"></path><path d="M552.23,236.67c-3,10.61-5.35,21.37-7.3,32.21a.28.28,0,0,0,.15.31.1.1,0,0,0,0,0l0,.2a.12.12,0,0,0,.11.14h.06a.18.18,0,0,0,.1-.09c2.16-6,4.21-11.62,8.09-16.78,3.55-4.7,7.23-9,9.67-14.4,2.07-4.65,5-24,1.68-26.73C562.58,209.75,554.62,228.24,552.23,236.67Z" style="fill:#ebebeb"></path><path d="M545.08,269.19a.1.1,0,0,0,0,0l0,.2a.12.12,0,0,0,.11.14h.06c2.38-8,5.33-16.13,9.63-23.34,1.75-2.93,3.69-5.64,4.87-8.87a53.48,53.48,0,0,0,2.36-10.06c.14-.93,1.11-5.46-.82-5.35s-2.87,4.59-3.33,5.83C553,241.33,548,255,545.08,269.19ZM550.63,250c2.11-6.64,4.45-13.2,6.82-19.74.6-1.67,1.16-3.35,1.82-5,.79-2,1.67-3,2.26-2.81s.59,1.75.58,2.19a39.87,39.87,0,0,1-1.74,9.84c-1.78,6.55-6.18,11.75-9,17.88a120.09,120.09,0,0,0-5.94,16.29Q547.7,259.18,550.63,250Z" style="fill:#fff"></path><path d="M551.11,304.33a.16.16,0,0,0,.08.1.19.19,0,0,0,.27,0l.53-.5h.07c4.41-2.88,8.62-3.92,13.7-4.95a23,23,0,0,0,10.18-4.93,38.57,38.57,0,0,0,8-9.59c.89-1.45,4.13-5.29,2.36-7.24-2.91-3.19-13.11,7.72-14.94,9.46a110,110,0,0,1-10.23,8.82c-3.57,2.65-7.19,5.2-10,8.67A.16.16,0,0,0,551.11,304.33Z" style="fill:#ebebeb"></path><path d="M551.11,304.33a.16.16,0,0,0,.08.1c4.56-3.55,10-5,15.29-7.24,4.54-1.94,8.48-5.55,11.54-9.36a25.3,25.3,0,0,0,2.41-3.59c.23-.42.71-1.11.63-1.64-.19-1.22-1.29-.38-1.85,0-4.26,3.37-8,7.33-12.42,10.49-2.37,1.69-5,2.9-7.37,4.59-2.1,1.5-4.07,3.21-6.09,4.82,0,0,0,0,0,0A18,18,0,0,0,551.11,304.33Zm2.69-2.09a66.23,66.23,0,0,1,7.9-5.63,54.47,54.47,0,0,0,6.74-4.29c2.39-1.84,4.61-3.88,6.86-5.88,1.06-.94,2.12-1.88,3.2-2.78.31-.25.6-.54.93-.76,1.43-.92,1.19.07,1,.59a25.84,25.84,0,0,1-1.41,2.39,31.45,31.45,0,0,1-14.35,11.62C561,298.91,557.1,300.12,553.8,302.24Z" style="fill:#fff"></path><path d="M559.76,287.59a.37.37,0,0,0,.1.22.2.2,0,0,0,.09.09.39.39,0,0,0,.14.08l0,0a.38.38,0,0,0,.35-.13,16,16,0,0,0,1.56-1.88c6.36-6.73,12.84-13.72,16.52-22.29a57.1,57.1,0,0,0,3.85-13.7c.36-2.3,1.9-7.51-.36-9.41s-3.63.69-4.62,2.38a123.79,123.79,0,0,0-6.94,13.51,67.61,67.61,0,0,0-4.34,14.32c-1.09,5.89-2,11.88-6.28,16.39A.43.43,0,0,0,559.76,287.59Z" style="fill:#ebebeb"></path><path d="M559.76,287.59a.37.37,0,0,0,.1.22,42.33,42.33,0,0,0,8.42-15.14,173.85,173.85,0,0,1,6.47-17.26c.68-1.5,1.35-3,2-4.48.14-.32,1.4-2.91,2.12-2.68s.32,2.93.21,3.35c-.69,2.58-1.62,5.13-2.52,7.64-3.77,10.44-9,20.52-16.74,28.57a.2.2,0,0,0,.09.09,62.36,62.36,0,0,0,11.8-16.34,111.24,111.24,0,0,0,6.86-17c.49-1.53,2.09-4.86.9-6.46-1-1.35-2.25.88-2.65,1.72a146.62,146.62,0,0,0-8,19.77C566.76,276.23,564.26,282.32,559.76,287.59Z" style="fill:#fff"></path><path d="M535,199.6a42,42,0,0,0-.52,14.66c1.27,7.49,4.7,14.33,7,21.52a.41.41,0,0,1,0,.08,50.51,50.51,0,0,1,1.56,5.95c.08.43.16.87.23,1.3a.29.29,0,0,0,.15.22.41.41,0,0,0,.19,0,.32.32,0,0,0,.16-.09h0a.3.3,0,0,0,.1-.27c-.07-.63-.17-1.25-.27-1.88a.14.14,0,0,0,0-.11c0-10.35.44-21,1-31.57a75.29,75.29,0,0,0-.35-14c-.37-2.75-1.2-6.85-4-8.21a.57.57,0,0,0-.58,0C536.27,189.66,535.7,195.76,535,199.6Z" style="fill:#ebebeb"></path><path d="M537.44,206.45c-.72,10.21,1.55,19.77,4,29.33a.41.41,0,0,1,0,.08c.52,2,1,4,1.56,5.95.12.51.25,1,.38,1.52a.41.41,0,0,0,.19,0,.32.32,0,0,0,.16-.09h0v0c-1-7.05-.24-14.61-.48-21.69-.12-3.76-.31-7.52-.54-11.27a84,84,0,0,0-.89-10c-.23-1.23-.9-3.56-2.43-2.1C537.56,199.91,537.61,204.08,537.44,206.45Zm.62-2.86a15.79,15.79,0,0,1,.5-2.88c.32-1.07,1.6-3.78,2.79-1.27.63,1.3.54,3.62.65,5,.13,1.59.25,3.18.35,4.77q.66,9.89.79,19.81c.07,4.21-.16,8.49.29,12.65-1.22-4.86-2.7-9.66-3.83-14.55a70.3,70.3,0,0,1-1.92-18.77C537.75,206.78,537.87,205.18,538.06,203.59Z" style="fill:#fff"></path><path d="M501.26,271.78a203.5,203.5,0,0,0,16.68,21.89c5.58,6.33,11.23,12.62,15.87,19.69,6.15,9.39,10.55,20.82,9.64,32a131.23,131.23,0,0,0,3.9-43.37c-1.73-24.66-4.53-49.52-4.14-74.27,0-.41.59-.37.63,0,1.15,12.86,1.45,25.79,2.49,38.66s2.42,25.55,3.22,38.35c.09,1.38.15,2.76.19,4.14,2.57-11,9.12-21.34,16.68-29.15.1-.1.23.06.14.16a72.1,72.1,0,0,0-12,20.32c-2.54,6.42-3.66,13-5,19.7A110.49,110.49,0,0,1,532.29,373c-.1.17-.36,0-.26-.17a111,111,0,0,0,9.57-21.25c3-14.84-3.65-29.55-12.46-41.56-4.62-6.3-9.73-12.21-14.67-18.26s-10.31-12.49-13.6-19.75A.22.22,0,0,1,501.26,271.78Z" style="fill:#ebebeb"></path><rect x="525.27" y="365.35" width="16.27" height="21.38" transform="translate(1066.8 752.07) rotate(180)" style="fill:#c7c7c7"></rect><path d="M655.6,244.93a28.22,28.22,0,0,0-.86,12.29c1.29,8.62,7.78,15.45,9.18,23.93-.18,1-.39,2.05-.66,3.08a.43.43,0,0,0,0,0v0h0v0a.14.14,0,0,0,.08.09c.06-.12.11-.24.16-.35s.2-.43.29-.64.25-.6.36-.92c0,0,.07-.13.07-.18,3.16-8.71.26-18.38-1.21-27.22-.85-5.06-.49-10.17-1.25-15.2-.18-1.2-.17-3.48-1.9-3C657.9,237.41,656.09,243.31,655.6,244.93Z" style="fill:#a6a6a6"></path><path d="M656.87,252.36c-.55,10.49,9.12,19.65,6.88,30.13-.07.29-.14.58-.22.88l-.18.6h0l-.09.25a.43.43,0,0,0,0,0v0h0v0a.14.14,0,0,0,.08.09h0a.09.09,0,0,0,.08-.06c.12-.31.23-.63.33-.94a13.86,13.86,0,0,0,.53-2.32s0,0,0,0a33.24,33.24,0,0,0-.21-14c-1.2-5.95-2.71-11.72-3.8-17.73-.13-.75-.13-3.68-1.33-3.29C657.45,246.55,656.94,251.15,656.87,252.36Zm.52-1.56c.09-.59.85-4.53,1.83-4.12.59.25.66,3.23.75,3.65.35,1.62.69,3.24,1,4.86.75,3.41,1.51,6.81,2.25,10.22a45,45,0,0,1,1.16,12.6C663.88,268.83,655.86,260.32,657.39,250.8Z" style="fill:#fff"></path><path d="M653.09,345.58c0,.14.11.33.3.21,7.94-5.11,17.85-1,26.07-5.51a42,42,0,0,0,8.83-7.06,33.53,33.53,0,0,0,5.38-6.39c.19-.32,1.2-1.62,1-2.26-1.26-4.9-14,3.38-16.11,4.55-8.32,4.54-15.93,8.68-23.22,14.5-.76.59-1.52,1.22-2.27,1.86C653.08,345.5,653.08,345.54,653.09,345.58Z" style="fill:#a6a6a6"></path><path d="M653.09,345.58,654,345c5.46-2.62,11.54-3.55,17.41-5a32.74,32.74,0,0,0,15.39-8.29c.77-.76,4-3.67,3-5.13s-4.11,1.22-4.9,1.67c-5.9,3.31-11.68,6.67-17.84,9.52-3.94,1.82-7.93,3.64-11.68,5.85-.76.59-1.52,1.22-2.27,1.86C653.08,345.5,653.08,345.54,653.09,345.58Zm3.71-2.21c4.34-2.43,8.9-4.46,13.43-6.6q4.65-2.2,9.12-4.78c1.62-.95,3.24-1.92,4.88-2.85.82-.47,1.65-.93,2.47-1.37.42-.23,1.78-1,2.13-.38.93,1.7-8.19,10.36-19.5,12.6A70.2,70.2,0,0,0,656.8,343.37Z" style="fill:#fff"></path><path d="M666.3,330.54a.08.08,0,0,0,0,.11.08.08,0,0,0,.12,0l.49-.48c.6-.59,1.18-1.19,1.75-1.8.1-.12.21-.22.31-.34l.09,0c6.35-6.49,16-8.47,21.37-16a36.36,36.36,0,0,0,5.09-11.17c.5-1.7,2.94-6.89.8-8.24-1.67-1-4.27,1.23-5.36,2.2-3.46,3.07-5.91,7.36-8.31,11.25s-4.51,7.73-6.76,11.59a74.37,74.37,0,0,1-7.09,9.93C668,328.55,667.15,329.55,666.3,330.54Z" style="fill:#a6a6a6"></path><path d="M666.3,330.54a.08.08,0,0,0,0,.11c.52-.55,1-1.09,1.57-1.62l-1,1.13c.6-.59,1.18-1.19,1.75-1.8l.84-1a101.47,101.47,0,0,1,11.7-9.69,21.81,21.81,0,0,0,5.27-5.23c2.66-3.81,6.78-12.78,6-14.14s-2.45,1.51-2.91,2.13c-3.69,5-6.69,10.51-10.66,15.36-2.67,3.25-5.38,6.48-8.09,9.72-.68.66-1.35,1.33-2,2C668,328.55,667.15,329.55,666.3,330.54Zm25.56-31.88c.7.29-.36,2.7-.64,3.33-1.35,3.07-2.81,6.17-4.46,9.09-1.75,3.1-4.25,5.14-7.12,7.15a78,78,0,0,0-6.86,5.45c2.69-3,5.34-6.1,7.82-9.29,2.06-2.66,3.85-5.49,5.67-8.31.91-1.41,1.82-2.81,2.78-4.17.26-.38,2.18-3.51,2.81-3.25" style="fill:#fff"></path><path d="M619,370.58a.07.07,0,0,0,.06.07.08.08,0,0,0,.09-.07l.12-.6c.14-.74.27-1.47.38-2.21,0-.13,0-.26.06-.4a.1.1,0,0,0,0-.07c1.4-8,7.48-14.28,7.67-22.54A32.88,32.88,0,0,0,625.55,334c-.5-1.5-1.31-6.55-3.57-6.46-1.75.07-2.53,3.06-2.84,4.32-1,4-.64,8.39-.44,12.47s.57,8,.87,11.93a65.88,65.88,0,0,1-.22,10.89C619.25,368.26,619.13,369.41,619,370.58Z" style="fill:#a6a6a6"></path><path d="M619,370.58a.07.07,0,0,0,.06.07c.11-.67.22-1.33.34-2,0,.45-.09.89-.13,1.32.14-.74.27-1.47.38-2.21,0-.38.08-.75.13-1.13a90.88,90.88,0,0,1,3.72-13,19.24,19.24,0,0,0,1.24-6.51c0-4.14-1.45-12.82-2.72-13.42s-1,2.34-1.07,3c-.18,5.57.37,11.11-.11,16.68-.32,3.74-.69,7.49-1.05,11.23-.17.83-.32,1.66-.45,2.5C619.25,368.26,619.13,369.41,619,370.58Zm1.32-8.32c.44-3.59.85-7.19,1.06-10.79.18-3,.07-6,0-9,0-1.5-.08-3-.06-4.48,0-.4-.17-3.68.43-3.81s1.09,2.18,1.21,2.78a89.72,89.72,0,0,1,1.29,8.93,19.7,19.7,0,0,1-1.62,8.86A64.77,64.77,0,0,0,620.33,362.26Z" style="fill:#fff"></path><path d="M618.09,377.19a1.24,1.24,0,0,0,.62-.21c8.12-3.11,17-3.25,25.17-6.36a23.75,23.75,0,0,0,9.49-6.25c1.09-1.23,4.86-5.49,4-7.47-2.49-5.93-29.9,12.78-38.91,19.5a2,2,0,0,0-.42.28C617.8,376.94,617.84,377.17,618.09,377.19Z" style="fill:#a6a6a6"></path><path d="M618.09,377.19l1.82-1c2-.79,4-1.54,6-2.18,3.22-1,6.53-1.62,9.8-2.44a31.27,31.27,0,0,0,13.7-7.32c.84-.77,3.34-2.84,2.8-4.29s-2.55,0-3.28.33c-10.3,4.92-20.33,10.57-30.32,16.13l-.53.26C617.8,376.94,617.84,377.17,618.09,377.19Zm4.79-2.62q5.86-3.19,11.75-6.34c3.08-1.65,6.15-3.27,9.24-4.89,1.53-.8,3-1.62,4.58-2.39.61-.31,3-1.51,3.18-.66s-1.4,2.43-1.7,2.73c-4.63,4.77-10.57,7.22-16.93,8.64A74.21,74.21,0,0,0,622.88,374.57Z" style="fill:#fff"></path><path d="M657,308.55a.37.37,0,0,0,0,.32.41.41,0,0,0,.36.25.47.47,0,0,0,.23,0,.15.15,0,0,0,.14,0c3.84-3.75,9.69-7.25,13.64-10.85a41.83,41.83,0,0,0,7.61-9.59,56.52,56.52,0,0,0,5.61-12.49c.62-2.07,2.41-7,.72-9-3.47-4.21-10.48,11.1-11.48,12.81C668.17,289.43,662.54,299,657,308.55Z" style="fill:#a6a6a6"></path><path d="M657,308.87a.41.41,0,0,0,.36.25l.67-1c1.5-1.76,3-3.52,4.6-5.2,2.61-2.74,5.58-5.11,8.1-7.93,4.37-4.92,12.58-20.59,10.22-22.15-1.23-.82-2.75,2.41-3.2,3.17-1.77,3-3.14,6.24-5,9.24-1.88,3.15-3.95,6.18-6,9.22-3.19,4.68-6.39,9.33-9.52,14.05C657.15,308.65,657.06,308.75,657,308.87Zm3.15-3.8q4.25-6.19,8.43-12.43c1.94-2.87,3.85-5.77,5.57-8.77,1-1.68,1.83-3.41,2.69-5.15.42-.84.84-1.69,1.32-2.5s2-3.63,2.64-2.56-1.38,5.66-1.87,6.73c-.8,1.75-1.62,3.48-2.51,5.18a44.4,44.4,0,0,1-6.3,9.4c-2.53,2.81-5.5,5.18-8.06,8C661.39,303.64,660.75,304.35,660.12,305.07Z" style="fill:#fff"></path><path d="M611,316.18c7.06,7.67,18.44,9.8,22.59,23.24,0,.05.08.05.11,0a0,0,0,0,0,0-.05c-.26-1.36-.56-2.71-.93-4.05a58.72,58.72,0,0,0-9.75-20.15,44.61,44.61,0,0,0-9.53-9.33c-1.86-1.32-5.88-4.67-8.21-4.15C600.31,302.82,609.73,314.79,611,316.18Z" style="fill:#a6a6a6"></path><path d="M611.44,311.46c2.85,5.58,8.48,9.19,12.8,13.53a50.75,50.75,0,0,1,7.8,9.87c.58,1.51,1.14,3,1.68,4.58a0,0,0,0,0,0-.05c-.26-1.36-.56-2.71-.93-4.05l-.12-.21a62.38,62.38,0,0,0-5.86-11.73,64.59,64.59,0,0,0-11.63-13.79c-.78-.7-3.34-3.74-4.67-3S611.05,310.69,611.44,311.46Zm-.47-4.33c1-.36,5.49,4.14,7.27,6a64.57,64.57,0,0,1,9.83,13.17,60.78,60.78,0,0,1,3.09,6.41,50.31,50.31,0,0,0-5.1-6.39c-3.89-4.17-8.76-7.51-12.28-12a18.14,18.14,0,0,1-2.34-3.81C611.2,310,610.08,307.47,611,307.13Z" style="fill:#fff"></path><path d="M619.77,274.34a47.91,47.91,0,0,0-.07,11.29A46.94,46.94,0,0,0,627.07,306c.07.11.14.23.22.34.06.35.13.71.21,1.06l.06.25,0,.05h0a.09.09,0,0,0,.16-.07c0-.44,0-.89,0-1.33.14-9.08,1.82-18,.6-27.07-.27-2-1.56-15-6.1-12.76C620.14,267.47,620,272.45,619.77,274.34Z" style="fill:#a6a6a6"></path><path d="M621.58,276.17c-.31,5.6,1.16,11.61,2.31,17.06A129.38,129.38,0,0,0,627.07,306c.1.35.22.69.33,1l.1.37a1.67,1.67,0,0,0,.08.3h0a.09.09,0,0,0,.16-.07c0-.44,0-.89,0-1.33s-.19-.66-.27-1a104.34,104.34,0,0,1-.56-14.91c0-2.71,0-5.4-.26-8.1a36.47,36.47,0,0,0-1.15-7.86c-.36-1.09-1.09-3.24-2.61-2.44C621.62,272.62,621.66,275,621.58,276.17Zm3.34-1.89c1,2.94,1.1,6.4,1.31,9.47s.18,5.91.15,8.86a90,90,0,0,0,.22,9.43c-1.08-3.93-2.11-7.88-2.88-11.92-.6-3.16-1.13-6.34-1.49-9.53a23.59,23.59,0,0,1-.17-5,14.72,14.72,0,0,1,.24-1.75C622.7,272.05,624.49,273,624.92,274.28Z" style="fill:#fff"></path><path d="M675.54,250.75c0,.15-.06.29-.09.44a.27.27,0,0,0,.34.3.26.26,0,0,0,.19-.21c.06-.26.13-.53.19-.79h0l.15-.63a10.91,10.91,0,0,1,.63-1c2.41-3.65,6.58-6.73,9.41-9.84a57.58,57.58,0,0,0,7-9.09,28.18,28.18,0,0,0,4-10.84c.13-1,.62-3.67-.68-4.33-1.64-.83-4.16,2.33-5,3.15a47.29,47.29,0,0,0-7.86,9.75C679.43,234.79,677.17,242.59,675.54,250.75Z" style="fill:#a6a6a6"></path><path d="M676.27,249a15.42,15.42,0,0,0-.73,1.8c0,.15-.06.29-.09.44a.27.27,0,0,0,.34.3,2.81,2.81,0,0,1,.1-.31c.09-.23.18-.46.28-.69h0c.24-.56.5-1.11.78-1.66a37.23,37.23,0,0,1,3.53-5.62c2.31-3.08,4.74-6.08,6.93-9.26,1.11-1.59,9.57-13.83,6.24-15-.63-.23-1.23.61-1.57,1a25.91,25.91,0,0,0-3,4.1c-2.12,3.32-4.12,6.73-6,10.18A109.37,109.37,0,0,0,676.27,249Zm6.06-12.65c1.61-3.07,3.33-6.07,5.11-9,.88-1.44,1.75-2.9,2.7-4.29.47-.69,2.85-3.8,3.5-3.39,1,.6-1.31,5.43-2,6.74-.79,1.48-1.65,2.93-2.54,4.35-1.81,2.86-3.81,5.59-5.87,8.28-1.81,2.39-4,4.91-5.67,7.65A109.28,109.28,0,0,1,682.33,236.3Z" style="fill:#fff"></path><path d="M646.45,293.36c0,.15.1.28.14.42a.26.26,0,0,0,.44.09.26.26,0,0,0,.07-.28l-.24-.77h0c-.06-.21-.12-.41-.19-.62,0-.4,0-.81,0-1.21.25-4.36,2.32-9.12,3.21-13.23a57.41,57.41,0,0,0,1.48-11.37A28.2,28.2,0,0,0,649.46,255c-.41-1-1.3-3.49-2.76-3.4-1.84.11-2.43,4.1-2.78,5.26a47.11,47.11,0,0,0-1.9,12.37C641.8,277.6,643.77,285.48,646.45,293.36Z" style="fill:#a6a6a6"></path><path d="M646.18,291.43a15.45,15.45,0,0,0,.27,1.93c0,.15.1.28.14.42a.26.26,0,0,0,.44.09,3,3,0,0,1-.06-.32c0-.24-.08-.49-.11-.73h0c-.07-.61-.12-1.22-.16-1.83a37.17,37.17,0,0,1,.24-6.63c.45-3.83,1-7.64,1.35-11.49.15-1.93,1.33-16.76-2.14-16.1-.65.11-.75,1.14-.87,1.61a25.49,25.49,0,0,0-.57,5.07c-.17,3.94-.19,7.89-.09,11.83A108.1,108.1,0,0,0,646.18,291.43Zm-1.11-14c-.14-3.46-.16-6.92-.1-10.38,0-1.68,0-3.38.17-5.06.06-.84.56-4.72,1.33-4.69,1.13,0,1.59,5.36,1.65,6.83.06,1.68,0,3.37,0,5-.13,3.38-.48,6.76-.91,10.11-.37,3-1,6.24-1.07,9.46A109.52,109.52,0,0,1,645.07,277.45Z" style="fill:#fff"></path><path d="M626.63,299.46a210.32,210.32,0,0,0,4.79,23.31c1.6,5.94,3.23,12,3.46,18.15a46.44,46.44,0,0,1-5.62,22.69q3.25-3.63,6.44-7.37C640,351.17,644.32,346,647.39,340c.3-.59.57-1.19.85-1.78a.24.24,0,0,1,0-.15,80,80,0,0,0,1.55-23.93,66.46,66.46,0,0,0-5.21-12c-2.17-3.94-4.25-7.76-5.4-12.14-.06-.25.29-.4.39-.15,2.2,5.79,6.74,11.43,9.41,17.43-.15-1-.31-2-.49-3-1.74-9.5-5-19.05-1.55-28.55.11-.32.57-.1.47.21-3.28,10.58,1.88,22.24,3.41,32.76,1.13,7.82,1.51,16.24-.38,24a126.58,126.58,0,0,0,3.48-13.15c6-26.67,12.9-53.2,25.87-77.44.12-.24.51-.07.38.17-13.27,26.31-18.53,54.9-25.45,83.25l-.24,1a53.55,53.55,0,0,1,8.33-10.08c.16-.15.4,0,.26.21-3.8,4.88-6.7,10.21-10.13,15.29a55.3,55.3,0,0,1-5,11.42,91.53,91.53,0,0,1-8.82,12.08c5.41-4.55,10.87-9,16-14a241.88,241.88,0,0,0,21.65-23.83c.1-.12.28,0,.19.16a202,202,0,0,1-21.55,25.71c-6.74,6.7-14,13.53-22,18.68-7.73,8.9-16,17.85-25.79,24.37-.46.31-.9-.34-.5-.7,1.8-1.59,3.55-3.22,5.29-4.86,1.69-3.77,4-7.23,5.53-11.13a61.41,61.41,0,0,0,3.58-14.19c0-.36.57-.27.55.08-.4,6.64-1.89,14.82-5.44,21.16q3.71-3.68,7.28-7.46c6.35-9.7,10.49-21.24,9.1-32.84-.71-6-2.43-11.73-3.83-17.56a129.58,129.58,0,0,1-2.92-19.61A.22.22,0,0,1,626.63,299.46Z" style="fill:#a6a6a6"></path><path d="M136.87,261.85c1.37,3.78,1.09,8.43.92,12.37a97.61,97.61,0,0,1-1.57,13.43c-.75,4.14-1.7,8.24-2.72,12.31l0,.11c-.06.27-.13.54-.2.8s-.08.67-.14,1a.19.19,0,0,1-.17.17.17.17,0,0,1-.21-.18c0-.18,0-.37,0-.55.66-7.64-3.74-14.61-4-22.18-.14-4.14.85-8.3,1.63-12.35.42-2.24.53-5.15,1.4-7.26.24-.56.29-1.16.92-1.46C134.66,257.15,136.39,260.53,136.87,261.85Z" style="fill:#a6a6a6"></path><path d="M135.06,264.68c-1.2-1-1.91,1.75-2.14,2.5-1.57,5-2.45,11.05-1.55,16.27,1,5.74,2,11.48,1.59,17.29-.06.19-.11.38-.17.57s0,.37,0,.55a.17.17,0,0,0,.21.18c0-.11,0-.22.05-.34.17-.54.32-1.08.46-1.63l0-.11a110.47,110.47,0,0,0,2-11.91,77.3,77.3,0,0,0,.89-16.85,37,37,0,0,0-.51-4.05C135.77,266.48,135.65,265.16,135.06,264.68Zm.67,3.4c.22,1.42.36,2.85.44,4.29a77.9,77.9,0,0,1-.86,14.79,110.07,110.07,0,0,1-2.1,12.69,44.65,44.65,0,0,0-.43-9.93c-.34-2.48-.86-4.92-1.23-7.4a27.8,27.8,0,0,1,.3-8.34,35.1,35.1,0,0,1,1.67-7.72c.19-.49.75-1.58,1.18-1.5C135.45,265.09,135.65,267.52,135.73,268.08Z" style="fill:#fff"></path><path d="M102.56,320.19s0,0,0,0" style="fill:#a6a6a6"></path><path d="M133.15,373a.21.21,0,0,1,.09.23h0a.22.22,0,0,1-.16.15.3.3,0,0,1-.16,0c-4.67-2.37-9.14-6.13-14.55-6.4-4.24-.22-7.88.3-11.9-1.43a32.14,32.14,0,0,1-10.77-7.73A33.39,33.39,0,0,1,92,352.92c-.51-.82-2.18-2.89-1.94-3.95,1.09-5,15.83,3.87,17.79,5.06,8.67,5.27,17.49,11.21,24.73,18.37a.09.09,0,0,1,0,.08.13.13,0,0,1,0,.09Z" style="fill:#a6a6a6"></path><path d="M133.15,373l-.57-.39a.13.13,0,0,0,0-.09c-4.79-3.63-9.88-6.93-15-10.11a150.7,150.7,0,0,0-17-9.55c-.81-.36-4.16-2.37-4.86-1.07s2.78,4.27,3.52,4.94c4.37,3.91,10.08,5.7,15.59,7.32,3.59,1.05,7.1,2.06,10.31,4,2.69,1.66,5.19,3.62,7.86,5.3a.22.22,0,0,0,.16-.15c-1.37-.87-2.7-1.83-4-2.77,1.34.91,2.67,1.84,4,2.76A.21.21,0,0,0,133.15,373Zm-12.08-7.38c-5.37-2.09-11.12-3-16.29-5.65a23,23,0,0,1-6.68-5c-.36-.39-2.11-2.15-1.71-2.84.26-.47,1.66,0,1.86,0a40.4,40.4,0,0,1,4.46,2c5.05,2.57,10,5.49,14.77,8.48,2.68,1.66,5.29,3.38,7.89,5.15A25.65,25.65,0,0,0,121.07,365.58Z" style="fill:#fff"></path><path d="M111.83,270.12c.58,4.48-.33,9.16-1.55,13.47-2.83,10-8.3,19.24-10,29.53-.07.41-.13.81-.18,1.22s0,.4-.15-.23h0c-.75-2.74-3.35-14.8-2.16-23.46.75-5.4,2.61-10.5,4.48-15.59,1.06-2.91,2.11-5.82,3.19-8.72.36-.93.85-3.58,2.25-3.78C110.38,262.15,111.59,268.36,111.83,270.12Z" style="fill:#a6a6a6"></path><path d="M107.11,271a.91.91,0,0,0-1.21.31,4.69,4.69,0,0,0-.59,1.77c-.27,1.06-.55,2.11-.82,3.17-1.89,7.31-4.43,14.77-5.13,22.31a62.15,62.15,0,0,0,.54,15v.49h0c.17.63.24.76.15.23s.11-.81.18-1.22q0-.84.06-1.68a45.66,45.66,0,0,1,2.55-11.34A115.48,115.48,0,0,0,108,278.58a22.18,22.18,0,0,0,.16-4.95C108.08,272.88,107.9,271.41,107.11,271Zm.66,2.36a7.89,7.89,0,0,1,.1,1.08,20.31,20.31,0,0,1-.05,2.34,55.56,55.56,0,0,1-.75,5.59A157.27,157.27,0,0,1,102,301.73a40.75,40.75,0,0,0-2,9.69c-.27-2.77-.42-5.55-.42-8.32,0-7.12,2-13.86,3.77-20.7.44-1.69.87-3.39,1.31-5.08.21-.85.43-1.69.65-2.54l.32-1.27c.22-.85.09-1.2,1-1.46C107.79,271.73,107.61,272.39,107.77,273.38Z" style="fill:#fff"></path><path d="M118.93,311.82a56,56,0,0,1,2.72,10.24c1.16,7,.09,15.09,1.93,22.06.16.46.31.93.44,1.39l.14.53c0,.09-.13.14-.17,0-.15-.29-.29-.59-.45-.88v0l-.24-.46c-3.47-6.79-7.92-13-9.4-20.63-.91-4.69-2.36-17.62.74-18.6C116,305.06,118.17,309.81,118.93,311.82Z" style="fill:#a6a6a6"></path><path d="M116.11,312.51c-.74.35-.71,1.8-.76,2.4a30,30,0,0,0,.18,4.83,48.56,48.56,0,0,0,1.74,8.78,95.48,95.48,0,0,0,6,16.21l.24.46v0c.16.29.3.59.45.88,0,.09.19,0,.17,0l-.14-.53c-2.29-6-3.24-12.26-4-18.63C119.81,325.45,118.66,311.31,116.11,312.51Zm2.32,5.74c.22,1.33.4,2.67.58,4,.42,3.13.77,6.27,1.23,9.39a72.5,72.5,0,0,0,2.12,10.1,121.2,121.2,0,0,1-4.24-11.53,66.86,66.86,0,0,1-1.92-7.87,33.86,33.86,0,0,1-.45-4.38c0-.7-.32-4.75.52-5.1C117.31,312.45,118.33,317.67,118.43,318.25Z" style="fill:#fff"></path><path d="M148.51,298c1.71,2.1.9,6.3,0,8.51a20.11,20.11,0,0,1-6.4,7.74c-3.86,3.05-8.16,5.4-11.41,9.17s-2.18,2.6-4.44,7.38c0,.09-.13.09-.2,0a.87.87,0,0,1-.14-.76s0-.09,0-.13c2.08-7.85,6.11-14,11.45-20.17,3-3.47,4.86-7.88,8-11.22C146.55,297.29,147.33,296.56,148.51,298Z" style="fill:#a6a6a6"></path><path d="M146.7,302.14c-1.16-.55-2.61,1.8-3.21,2.65a49.15,49.15,0,0,1-5.52,7,61.13,61.13,0,0,0-5.39,5.76,39.7,39.7,0,0,0-5.85,10.51,19.22,19.22,0,0,0-.83,2,.87.87,0,0,0,.14.76,2.58,2.58,0,0,1,.08-.26,26.92,26.92,0,0,1,9.52-12.27c4.4-3.34,8.55-7,10.9-12.16C147,305.22,147.76,302.65,146.7,302.14Zm-.19,3.34A22.86,22.86,0,0,1,145.2,308a26.52,26.52,0,0,1-3.11,4.18,48.57,48.57,0,0,1-6.94,6,29.53,29.53,0,0,0-7.26,7.72,40.36,40.36,0,0,1,5.46-8.93c2-2.43,4.41-4.4,6.45-6.76.94-1.09,1.77-2.26,2.61-3.43l1.33-1.9c.39-.57,1.65-2.57,2.5-2.41C147.33,302.75,146.66,305.13,146.51,305.48Z" style="fill:#fff"></path><path d="M76.55,278.18C83.49,286,90,294.27,96.1,302.75a.27.27,0,0,1,0,.33.09.09,0,0,1,0,.05,1.63,1.63,0,0,1,.11.17.11.11,0,0,1,0,.16h-.06a.15.15,0,0,1-.12,0c-4.33-4.24-8.4-8.21-13.85-11-5-2.57-9.9-4.7-14.23-8.34-3.7-3.13-14.19-18.52-12.48-22.2C56.56,259.41,71,272,76.55,278.18Z" style="fill:#a6a6a6"></path><path d="M68,273c-.91-.88-3.57-4.32-5.26-3.62s1,4.18,1.51,4.92a50.86,50.86,0,0,0,6.17,7.63c2.35,2.29,5.13,3.8,7.84,5.59,6.66,4.4,12.53,10.13,17.88,16h.06a.11.11,0,0,0,0-.16,1.63,1.63,0,0,0-.11-.17.09.09,0,0,0,0-.05C87.72,292.17,77.78,282.51,68,273Zm27.56,29.78a111.54,111.54,0,0,0-11.82-11.49c-4.89-4.1-10.81-6.74-15-11.62a37.8,37.8,0,0,1-5.56-7.7c-.18-.37-.87-1.63-.41-2.12s1.61.11,3.11,1.48c1.24,1.13,2.41,2.34,3.61,3.52,4.74,4.63,9.45,9.28,14,14.09Q89.72,295.58,95.51,302.73Z" style="fill:#fff"></path><path d="M105.45,335.67a.26.26,0,0,1,0,.11.19.19,0,0,1-.23.12l-.66-.21-.06,0c-5-.64-9,.2-13.78,1.42a22,22,0,0,1-10.75,0,36.49,36.49,0,0,1-10.83-4.89c-1.37-.88-5.73-2.83-5-5.23,1.17-3.93,14.41,1.19,16.7,1.93a104.51,104.51,0,0,0,12.4,3.33c4.15.8,8.31,1.48,12.17,3.28A.15.15,0,0,1,105.45,335.67Z" style="fill:#a6a6a6"></path><path d="M102.81,335.06h0c-2.4-.54-4.79-1.19-7.21-1.61-2.71-.48-5.48-.42-8.2-.88-5.09-.89-9.93-2.74-15-3.86-.65-.14-2-.4-1.6.72.14.49.84.88,1.21,1.14a22.9,22.9,0,0,0,3.55,2.08,30,30,0,0,0,13.75,3.26c5.43-.25,10.71-1.28,16.08-.12a.26.26,0,0,0,0-.11A17.39,17.39,0,0,0,102.81,335.06Zm-11.76.33a29.89,29.89,0,0,1-17.09-4c-.48-.29-1.75-1.1-2.19-1.46s-1-1.11.57-.9a8.51,8.51,0,0,1,1.11.26c1.31.33,2.6.69,3.89,1.06,2.75.78,5.5,1.61,8.31,2.2a51.56,51.56,0,0,0,7.54.9,61.23,61.23,0,0,1,9.09,1.55C98.58,334.53,94.75,335.1,91.05,335.39Z" style="fill:#fff"></path><path d="M91.13,324.9a.44.44,0,0,1,0,.23.37.37,0,0,1,0,.11.57.57,0,0,1-.08.13s0,0,0,0a.33.33,0,0,1-.35,0,14.57,14.57,0,0,1-2.12-1c-8.22-3.13-16.65-6.45-23.35-12.26a54,54,0,0,1-9-10.14c-1.26-1.83-4.73-5.66-3.58-8.22s3.39-.9,4.93.14a116,116,0,0,1,11.53,8.7,63.71,63.71,0,0,1,9.63,10.47c3.37,4.6,6.6,9.36,12.15,11.45A.38.38,0,0,1,91.13,324.9Z" style="fill:#a6a6a6"></path><path d="M75.94,313.27a137.76,137.76,0,0,0-15-13.62c-.68-.55-2.66-2-3-.38-.36,1.86,2.39,4.06,3.44,5.16a106.42,106.42,0,0,0,12.87,11.69,59.3,59.3,0,0,0,16.86,9.12.37.37,0,0,0,0-.11c-10-3.7-18.61-10.17-26.14-17.55-1.82-1.79-3.65-3.58-5.32-5.51-.26-.31-1.79-2.39-1.19-2.95s2.66,1.2,2.92,1.42c1.2,1,2.39,2,3.59,3a166.47,166.47,0,0,1,12.67,12.11,40.22,40.22,0,0,0,13.47,9.49.44.44,0,0,0,0-.23C85.1,322.24,80.44,318.06,75.94,313.27Z" style="fill:#fff"></path><path d="M76,239.32a40.09,40.09,0,0,1,6.5,12.33c2,7,1.89,14.22,2.89,21.33,0,0,0,0,0,.08a47.71,47.71,0,0,0,1.13,5.74c.1.4.21.8.33,1.21a.22.22,0,0,1,0,.24.28.28,0,0,1-.16.09.33.33,0,0,1-.17,0h0a.33.33,0,0,1-.2-.2c-.2-.57-.38-1.14-.55-1.72a.15.15,0,0,1-.09-.07c-4.24-8.88-9.06-17.85-13.88-26.63a70.36,70.36,0,0,1-5.49-12.13c-.81-2.51-1.81-6.36,0-8.67a.58.58,0,0,1,.49-.27C70.8,231.33,73.81,236.32,76,239.32Z" style="fill:#a6a6a6"></path><path d="M71.57,239.88c-1.92-.62-1.53,1.66-1.22,2.81a81.51,81.51,0,0,0,3.39,9q2,5,4.19,9.87c2.72,6.17,6.53,12.31,8.55,18.78v0h0a.33.33,0,0,0,.17,0,.28.28,0,0,0,.16-.09c-.09-.49-.19-1-.29-1.45-.39-1.92-.76-3.83-1.13-5.74,0,0,0-.06,0-.08-1.82-9.21-3.82-18.34-8.66-26.78C75.6,244.23,73.93,240.64,71.57,239.88Zm5.74,8.05a66.51,66.51,0,0,1,6.11,16.87c1.06,4.66,1.77,9.38,2.74,14.05-1.34-3.75-3.3-7.32-5-11q-4-8.56-7.51-17.3c-.56-1.41-1.12-2.81-1.66-4.23-.49-1.24-1.52-3.19-1.53-4.56,0-2.65,2.2-.85,2.92-.07A15.54,15.54,0,0,1,75,244Q76.25,245.94,77.31,247.93Z" style="fill:#fff"></path><path d="M134.7,287.2a194.76,194.76,0,0,1-5.25,25.63c-2.16,7.73-4.41,15.45-5.45,23.42-1.4,10.58-.44,22.18,4.95,31.39a124.9,124.9,0,0,1-21.25-35.53C99,310.28,91.13,287.84,80.58,266.8c-.18-.35-.66-.07-.53.28,4.32,11.48,9.41,22.68,13.83,34.13s8.48,22.89,13.08,34.17c.5,1.23,1,2.43,1.55,3.63-6.74-8.35-16.62-14.51-26.32-18.07-.13-.05-.18.14-.06.19a68.17,68.17,0,0,1,18.7,12.43c4.83,4.45,8.5,9.61,12.39,14.82a105.06,105.06,0,0,0,36.69,38.29.15.15,0,0,0,.16-.25,105.49,105.49,0,0,1-17-14.24c-8.68-11.48-9.08-26.81-6.5-40.74,1.36-7.31,3.29-14.48,5-21.7s3.67-14.95,3.49-22.53A.21.21,0,0,0,134.7,287.2Z" style="fill:#a6a6a6"></path></g><g id="freepik--Shadow--inject-19"><ellipse cx="372.15" cy="450.66" rx="309.07" ry="15.56" style="fill:#ebebeb"></ellipse></g><g id="freepik--Floor--inject-19"><polygon points="60.37 386.27 139.03 386.03 217.69 385.94 375 385.77 532.31 385.94 610.97 386.03 689.63 386.27 610.97 386.52 532.31 386.6 375 386.77 217.69 386.6 139.03 386.51 60.37 386.27" style="fill:#263238"></polygon></g><g id="freepik--text-2--inject-19"><path d="M636.94,110.06H573.87L534.48,386.32h48l6-49.29h37.07l6.6,49.29h46.74ZM592.52,303.28,606.19,191.4l14.93,111.88Z" style="fill:#92E3A9"></path><g style="opacity:0.1"><path d="M636.94,110.06H573.87L534.48,386.32h48l6-49.29h37.07l6.6,49.29h46.74ZM592.52,303.28,606.19,191.4l14.93,111.88Z"></path></g><polygon points="218.63 110.06 174.52 275.97 174.52 386.32 124.96 386.32 124.96 275.97 78.65 110.06 126.33 110.06 150.01 199.58 171.1 110.06 218.63 110.06" style="fill:#92E3A9"></polygon><g style="opacity:0.1"><polygon points="218.63 110.06 174.52 275.97 174.52 386.32 124.96 386.32 124.96 275.97 78.65 110.06 126.33 110.06 150.01 199.58 171.1 110.06 218.63 110.06"></polygon></g><path d="M468.24,206.59V177.71q0-19-4-26.68-3.24-6.25-11.15-7.42h0a15.44,15.44,0,0,0-12,8.91q-4.56,9.18-4.55,32.57V304.85q0,27.16,4.08,37.83,3.39,8.86,12.14,10.37,9-1.57,13.08-11.15,4.95-11.46,4.95-38.62v-37.2H449.56v-30.6H515V386.32H488.64L485,370.81a35.67,35.67,0,0,1-9.7,10.33,43,43,0,0,1-25.75,8H442q-26.06,0-40.73-20.48t-14.67-63.18V185.4q0-38.29,15-58.39t47.63-20.09h7.5q40.67,0,51.65,30.3Q515,155.43,515,187v19.62Z" style="fill:#92E3A9"></path><g style="opacity:0.1"><path d="M468.24,206.59V177.71q0-19-4-26.68-3.24-6.25-11.15-7.42h0a15.44,15.44,0,0,0-12,8.91q-4.56,9.18-4.55,32.57V304.85q0,27.16,4.08,37.83,3.39,8.86,12.14,10.37,9-1.57,13.08-11.15,4.95-11.46,4.95-38.62v-37.2H449.56v-30.6H515V386.32H488.64L485,370.81a35.67,35.67,0,0,1-9.7,10.33,43,43,0,0,1-25.75,8H442q-26.06,0-40.73-20.48t-14.67-63.18V185.4q0-38.29,15-58.39t47.63-20.09h7.5q40.67,0,51.65,30.3Q515,155.43,515,187v19.62Z"></path></g><path d="M297.12,389.45h0Zm.61-282.68h0Zm.59,36.41H292.7l.37,0a2.22,2.22,0,0,1,.37,0,2.43,2.43,0,0,1,.38,0l.37,0,.37,0a2.32,2.32,0,0,1,.38.06l.37.05.37-.05a2.32,2.32,0,0,1,.38-.06l.38,0,.38,0a2.22,2.22,0,0,1,.37,0,2.34,2.34,0,0,1,.38,0l.38,0h.37ZM297.66,353h-.26l-.38,0a2.22,2.22,0,0,1-.37,0,2.43,2.43,0,0,1-.38,0,2.31,2.31,0,0,1-.37,0l-.39,0a2.5,2.5,0,0,1-.38-.06,1.74,1.74,0,0,1-.39-.05,1.49,1.49,0,0,1-.36.05,2.38,2.38,0,0,1-.37.06l-.36,0c-.12,0-.25,0-.38,0a2.31,2.31,0,0,1-.37,0,2.34,2.34,0,0,1-.38,0l-.37,0h0a.41.41,0,0,0,.11,0h.64a.41.41,0,0,0,.11,0h.64a.41.41,0,0,0,.11,0h.64a.41.41,0,0,0,.11,0h.64a.41.41,0,0,0,.11,0h.64a.41.41,0,0,0,.11,0h.64a.41.41,0,0,0,.11,0h.64a.41.41,0,0,0,.11,0h.15Z" style="fill:#92E3A9"></path><path d="M297.64,389.45h-2.26l-.37,0-.37,0h3Zm-.38-282.69h0ZM297.77,353h0Zm.55-209.84h0Zm-1.5,0H292.7l.37,0a2.22,2.22,0,0,1,.37,0,2.43,2.43,0,0,1,.38,0l.37,0,.37,0,.38,0,.38,0a2.22,2.22,0,0,1,.37,0,2.34,2.34,0,0,1,.38,0l.38,0h.37ZM296.27,353h-.37l-.38,0a2.22,2.22,0,0,1-.37,0,2.43,2.43,0,0,1-.38,0,2.31,2.31,0,0,1-.37,0l-.39,0-.36,0c-.12,0-.25,0-.38,0a2.31,2.31,0,0,1-.37,0,2.34,2.34,0,0,1-.38,0l-.37,0h0a.41.41,0,0,0,.11,0h.64a.41.41,0,0,0,.11,0h.64a.41.41,0,0,0,.11,0h.64a.41.41,0,0,0,.11,0h.64a.41.41,0,0,0,.11,0h.64a.41.41,0,0,0,.11,0h.26Z" style="fill:#92E3A9"></path><path d="M297,389.44h-1.6l-.37,0-.37,0H297Zm.47-282.67h0ZM297.77,353h-.37l-.38,0-.37,0h0a.41.41,0,0,0,.11,0h.64a.41.41,0,0,0,.11,0h.26Zm.55-209.84H297.2l.37,0,.38,0h.37ZM294.88,353h-.48l-.38,0a2.22,2.22,0,0,1-.37,0,2.43,2.43,0,0,1-.38,0,2.31,2.31,0,0,1-.37,0,2.34,2.34,0,0,1-.38,0l-.37,0h0a.41.41,0,0,0,.11,0h.64a.41.41,0,0,0,.11,0h.64a.41.41,0,0,0,.11,0h.64a.41.41,0,0,0,.11,0h.37Zm.44-209.84H292.7l.37,0a2.22,2.22,0,0,1,.37,0,2.43,2.43,0,0,1,.38,0,2.22,2.22,0,0,1,.37,0,2.34,2.34,0,0,1,.38,0l.38,0h.37Z" style="fill:#92E3A9"></path><path d="M296.51,389.43h-1.13l-.37,0-.37,0h1.87Zm.79-282.66h0ZM297.77,353h-.37l-.38,0a2.22,2.22,0,0,1-.37,0,2.34,2.34,0,0,1-.38,0l-.37,0h0a.41.41,0,0,0,.11,0h.64a.41.41,0,0,0,.11,0h.64a.41.41,0,0,0,.11,0h.26Zm.55-209.84h-1.87l.37,0a2.31,2.31,0,0,1,.37,0,2.34,2.34,0,0,1,.38,0l.38,0h.37ZM294.13,353h-.48l-.38,0a2.22,2.22,0,0,1-.37,0,2.34,2.34,0,0,1-.38,0l-.37,0h0a.41.41,0,0,0,.11,0h.64a.41.41,0,0,0,.11,0h.64a.41.41,0,0,0,.11,0h.37Zm.44-209.84H292.7l.37,0a2.22,2.22,0,0,1,.37,0,2.34,2.34,0,0,1,.38,0l.38,0h.37Z" style="fill:#92E3A9"></path><path d="M292.76,389.44h0Zm.66-282.67h0Zm2.71,282.65h-.75l-.37,0-.37,0h1.49Zm.66-282.64h0Zm1,246.24h-.37l-.38,0a2.22,2.22,0,0,1-.37,0,2.43,2.43,0,0,1-.38,0,2.31,2.31,0,0,1-.37,0,2.34,2.34,0,0,1-.38,0l-.37,0h0a.41.41,0,0,0,.11,0h.64a.41.41,0,0,0,.11,0h.64a.41.41,0,0,0,.11,0h.64a.41.41,0,0,0,.11,0h.26Zm.55-209.84H295.7l.37,0a2.22,2.22,0,0,1,.37,0,2.43,2.43,0,0,1,.38,0,2.22,2.22,0,0,1,.37,0,2.34,2.34,0,0,1,.38,0l.38,0h.37ZM293.38,353h-.48l-.38,0-.37,0h0a.41.41,0,0,0,.11,0h.64a.41.41,0,0,0,.11,0h.37Zm.44-209.84H292.7l.37,0,.38,0h.37Z" style="fill:#92E3A9"></path><path d="M292.76,389.44h0Zm.56-282.67h0Zm2.44,282.64h-.38l-.37,0-.37,0h1.12Zm.56-282.62h0ZM297.77,353h-.37l-.38,0a2.22,2.22,0,0,1-.37,0,2.43,2.43,0,0,1-.38,0,2.31,2.31,0,0,1-.37,0c-.13,0-.25,0-.38,0a2.31,2.31,0,0,1-.37,0,2.34,2.34,0,0,1-.38,0l-.37,0h0a.41.41,0,0,0,.11,0h.64a.41.41,0,0,0,.11,0h.64a.41.41,0,0,0,.11,0h.64a.41.41,0,0,0,.11,0h.64a.41.41,0,0,0,.11,0h.26Zm.55-209.84H295l.37,0a2.31,2.31,0,0,1,.37,0,2.34,2.34,0,0,1,.38,0l.37,0,.38,0a2.22,2.22,0,0,1,.37,0,2.34,2.34,0,0,1,.38,0l.38,0h.37Zm-5.25,0h0ZM292.63,353h-.48a.41.41,0,0,0,.11,0h.37Z" style="fill:#92E3A9"></path><path d="M295.38,389.4l-.37,0-.37,0h.74Zm.53-282.6h0ZM297.77,353h-.37l-.38,0a2.22,2.22,0,0,1-.37,0,2.43,2.43,0,0,1-.38,0,2.31,2.31,0,0,1-.37,0l-.39,0-.36,0c-.12,0-.25,0-.38,0a2.31,2.31,0,0,1-.37,0,2.34,2.34,0,0,1-.38,0l-.37,0h0a.41.41,0,0,0,.11,0h.64a.41.41,0,0,0,.11,0h.64a.41.41,0,0,0,.11,0h.64a.41.41,0,0,0,.11,0h.64a.41.41,0,0,0,.11,0h.64a.41.41,0,0,0,.11,0h.26Zm.55-209.84H294.2l.37,0a2.22,2.22,0,0,1,.37,0,2.43,2.43,0,0,1,.38,0l.37,0,.37,0,.38,0,.38,0a2.22,2.22,0,0,1,.37,0,2.34,2.34,0,0,1,.38,0l.38,0h.37Zm-6,0h0ZM291.88,353h0Z" style="fill:#92E3A9"></path><path d="M292,389.45h0Zm.18-282.69h0ZM295,389.38l-.37,0h.74Zm-2.62.07h0Zm3.12-282.64h0Zm-2.38,0h0ZM297.77,353h-.37l-.38,0a2.22,2.22,0,0,1-.37,0,2.43,2.43,0,0,1-.38,0,2.31,2.31,0,0,1-.37,0l-.39,0a2.5,2.5,0,0,1-.38-.06,2.38,2.38,0,0,1-.37.06l-.36,0c-.13,0-.25,0-.38,0a2.31,2.31,0,0,1-.37,0,2.34,2.34,0,0,1-.38,0l-.37,0h0a.41.41,0,0,0,.11,0h.64a.41.41,0,0,0,.11,0h.64a.41.41,0,0,0,.11,0h.64a.41.41,0,0,0,.11,0h.64a.41.41,0,0,0,.11,0h.64a.41.41,0,0,0,.11,0h.64a.41.41,0,0,0,.11,0h.26Zm.55-209.84h-4.87l.37,0a2.31,2.31,0,0,1,.37,0,2.34,2.34,0,0,1,.38,0l.37,0,.37,0a2.2,2.2,0,0,1,.37.06,2.32,2.32,0,0,1,.38-.06l.38,0,.38,0a2.22,2.22,0,0,1,.37,0,2.34,2.34,0,0,1,.38,0l.38,0h.37Z" style="fill:#92E3A9"></path><path d="M297.77,353h-.37l-.38,0a2.22,2.22,0,0,1-.37,0,2.43,2.43,0,0,1-.38,0,2.31,2.31,0,0,1-.37,0l-.39,0a2.5,2.5,0,0,1-.38-.06,1.74,1.74,0,0,1-.39-.05,1.49,1.49,0,0,1-.36.05,2.38,2.38,0,0,1-.37.06l-.36,0c-.12,0-.25,0-.38,0a2.31,2.31,0,0,1-.37,0,2.34,2.34,0,0,1-.38,0l-.37,0h0a.41.41,0,0,0,.11,0h.64a.41.41,0,0,0,.11,0h.64a.41.41,0,0,0,.11,0h.64a.41.41,0,0,0,.11,0h.64a.41.41,0,0,0,.11,0h.64a.41.41,0,0,0,.11,0h.64a.41.41,0,0,0,.11,0h.64a.41.41,0,0,0,.11,0h.26Zm.55-209.84H292.7l.37,0a2.22,2.22,0,0,1,.37,0,2.43,2.43,0,0,1,.38,0l.37,0,.37,0a2.32,2.32,0,0,1,.38.06l.37.05.37-.05a2.32,2.32,0,0,1,.38-.06l.38,0,.38,0a2.22,2.22,0,0,1,.37,0,2.34,2.34,0,0,1,.38,0l.38,0h.37Z" style="fill:#92E3A9"></path><path d="M297.77,353h-.37l-.38,0a2.22,2.22,0,0,1-.37,0,2.43,2.43,0,0,1-.38,0,2.31,2.31,0,0,1-.37,0l-.39,0a2.5,2.5,0,0,1-.38-.06,1.74,1.74,0,0,1-.39-.05,1.49,1.49,0,0,1-.36.05,2.38,2.38,0,0,1-.37.06l-.36,0c-.12,0-.25,0-.38,0a2.31,2.31,0,0,1-.37,0,2.34,2.34,0,0,1-.38,0l-.37,0h0a.41.41,0,0,0,.11,0h.64a.41.41,0,0,0,.11,0h.64a.41.41,0,0,0,.11,0h.64a.41.41,0,0,0,.11,0h.64a.41.41,0,0,0,.11,0h.64a.41.41,0,0,0,.11,0h.64a.41.41,0,0,0,.11,0h.64a.41.41,0,0,0,.11,0h.26Zm.55-209.84H292.7l.37,0a2.22,2.22,0,0,1,.37,0,2.43,2.43,0,0,1,.38,0l.37,0,.37,0a2.32,2.32,0,0,1,.38.06l.37.05.37-.05a2.32,2.32,0,0,1,.38-.06l.38,0,.38,0a2.22,2.22,0,0,1,.37,0,2.34,2.34,0,0,1,.38,0l.38,0h.37Z" style="fill:#92E3A9"></path><path d="M345.38,126.07q-14.06-19.3-46.07-19.31h-7.5q-62,0-62,76V309.09q0,40.35,14.83,60.35t46.62,20h3.38l.37,0,.37,0h3.38q31.78,0,46.23-19.94t14.44-60.43V182.74Q359.43,145.38,345.38,126.07ZM309.7,309.56q0,23.87-3.61,33.67a13.82,13.82,0,0,1-11.35,9.51,1.74,1.74,0,0,0,.39.05,2.5,2.5,0,0,0,.38.06l.39,0a2.31,2.31,0,0,0,.37,0,2.43,2.43,0,0,0,.38,0,2.22,2.22,0,0,0,.37,0l.38,0h.11a.41.41,0,0,1-.11,0h-.64a.41.41,0,0,1-.11,0H296a.41.41,0,0,1-.11,0h-.64a.41.41,0,0,1-.11,0h-.64a.41.41,0,0,1-.11,0h-.64a.41.41,0,0,1-.11,0H293a.41.41,0,0,1-.11,0h-.64a.41.41,0,0,1-.11,0h0l.37,0a2.34,2.34,0,0,0,.38,0,2.31,2.31,0,0,0,.37,0c.13,0,.26,0,.38,0l.36,0a2.38,2.38,0,0,0,.37-.06,1.49,1.49,0,0,0,.36-.05,13.86,13.86,0,0,1-11.36-9.27q-3.69-9.57-3.69-33.91V180.7q0-19.47,4.31-28.49a14.79,14.79,0,0,1,11.31-8.72l-.37-.05a2.32,2.32,0,0,0-.38-.06l-.37,0-.37,0a2.43,2.43,0,0,0-.38,0,2.22,2.22,0,0,0-.37,0l-.37,0H298l-.38,0a2.34,2.34,0,0,0-.38,0,2.22,2.22,0,0,0-.37,0l-.38,0-.38,0a2.32,2.32,0,0,0-.38.06l-.37.05a13.47,13.47,0,0,1,10.7,8.72q3.69,9,3.69,28.64Z" style="fill:#92E3A9"></path><path d="M345.38,126.07q-14.06-19.3-46.07-19.31h-7.5q-62,0-62,76V309.09q0,40.35,14.83,60.35t46.62,20h3.38l.37,0,.37,0h3.38q31.78,0,46.23-19.94t14.44-60.43V182.74Q359.43,145.38,345.38,126.07ZM309.7,309.56q0,23.87-3.61,33.67a13.82,13.82,0,0,1-11.35,9.51,1.74,1.74,0,0,0,.39.05,2.5,2.5,0,0,0,.38.06l.39,0a2.31,2.31,0,0,0,.37,0,2.43,2.43,0,0,0,.38,0,2.22,2.22,0,0,0,.37,0l.38,0h.11a.41.41,0,0,1-.11,0h-.64a.41.41,0,0,1-.11,0H296a.41.41,0,0,1-.11,0h-.64a.41.41,0,0,1-.11,0h-.64a.41.41,0,0,1-.11,0h-.64a.41.41,0,0,1-.11,0H293a.41.41,0,0,1-.11,0h-.64a.41.41,0,0,1-.11,0h0l.37,0a2.34,2.34,0,0,0,.38,0,2.31,2.31,0,0,0,.37,0c.13,0,.26,0,.38,0l.36,0a2.38,2.38,0,0,0,.37-.06,1.49,1.49,0,0,0,.36-.05,13.86,13.86,0,0,1-11.36-9.27q-3.69-9.57-3.69-33.91V180.7q0-19.47,4.31-28.49a14.79,14.79,0,0,1,11.31-8.72l-.37-.05a2.32,2.32,0,0,0-.38-.06l-.37,0-.37,0a2.43,2.43,0,0,0-.38,0,2.22,2.22,0,0,0-.37,0l-.37,0H298l-.38,0a2.34,2.34,0,0,0-.38,0,2.22,2.22,0,0,0-.37,0l-.38,0-.38,0a2.32,2.32,0,0,0-.38.06l-.37.05a13.47,13.47,0,0,1,10.7,8.72q3.69,9,3.69,28.64Z" style="opacity:0.1"></path><path d="M125,386.32V276L78.65,110.06h40.18l27.32,103.28h.62L171.1,110.06h40L167,276V386.32Z" style="fill:#92E3A9"></path><path d="M337.49,369.52Q323,389.46,291.26,389.46t-46.62-20q-14.83-20-14.83-60.35V182.74q0-76,62-76,32,0,46.07,19.31t14.05,56.67V309.09Q351.93,349.59,337.49,369.52Zm-61.61-26Q279.55,353,291,353t15.07-9.81q3.62-9.81,3.61-33.67V180.85q0-19.62-3.69-28.64t-14.44-9q-10.76,0-15.07,9t-4.31,28.49V309.56Q272.19,333.89,275.88,343.47Z" style="fill:#92E3A9"></path><path d="M442,389.14q-26.06,0-40.73-20.48t-14.67-63.18V185.4q0-38.29,15-58.39t47.63-20.09q40.67,0,51.65,30.3,6.58,18.21,6.59,49.75v19.62H468.24V177.71q0-19-4-26.68t-15.06-7.69q-11.07,0-15.62,9.18T429,185.09V304.85q0,27.16,4.08,37.83T449,353.36q11.85,0,16.79-11.46t4.95-38.62v-37.2H449.56v-30.6h57.92V386.32H488.64l-6.43-27.16a36.39,36.39,0,0,1-14.44,22A43,43,0,0,1,442,389.14Z" style="fill:#92E3A9"></path><path d="M534.48,386.32l39.39-276.26h55.57l41.91,276.26H632.11L625.51,337H580.94l-6,49.29Zm86.64-83L602.6,164.53H602L585,303.28Z" style="fill:#92E3A9"></path></g><g id="freepik--character-3--inject-19"><path d="M601.89,303.7c-7.88,7.52-5,17.72-8.18,23.5-1.93,3.53-8.6,7.52-9.76,11.53-1.89,6.6,3.72,8.64,2.68,12.23-1.47,5.08-8.17,5.05-8.94,13.28s8.68,16.43,30.12,17.65,32.74-7.22,33.14-14.19-6.82-8.89-7.58-14c-.49-3.29,3.77-5.82,3.67-11.92s-6.14-7.76-7.26-12.88.94-17.82-7-23.82S605.77,300,601.89,303.7Z" style="fill:#263238"></path><path d="M602.85,303.84a17.61,17.61,0,0,0-5.14,6.61,38.49,38.49,0,0,0-2.6,8.54,23.55,23.55,0,0,1-1.39,5.11,12.77,12.77,0,0,1-2.67,3.68c-2.2,2.21-4.87,4-6.81,6.4s-3.21,5.38-2.27,8.36c.51,1.62,1.67,2.91,2.43,4.41s1.07,3.21-.12,4.49c-1,1.09-2.53,1.64-3.69,2.55a13.3,13.3,0,0,0-3,3.18,10.46,10.46,0,0,0-1.53,8.31c1.61,6.56,8,10,13.9,12.07l2.47.85c.12,0,.22-.14.09-.19-5.9-2.28-12.76-4.95-15.31-11.28a9.74,9.74,0,0,1,.53-8.61,12.53,12.53,0,0,1,2.88-3.36c1.11-.92,2.42-1.52,3.56-2.39a3.93,3.93,0,0,0,1.62-3.6,9.47,9.47,0,0,0-1.81-4.16,7.9,7.9,0,0,1-1.6-4.39,8.68,8.68,0,0,1,1.48-4.35c1.66-2.64,4.23-4.45,6.51-6.5a14.39,14.39,0,0,0,4.8-7.45c.37-1.55.56-3.13.86-4.68a38.69,38.69,0,0,1,1-4.28,20.3,20.3,0,0,1,4.11-7.67,11.2,11.2,0,0,1,1.69-1.54C603,303.9,602.92,303.78,602.85,303.84Z" style="fill:#263238"></path><path d="M641.62,362.57a7.89,7.89,0,0,0-1.64-3c-.79-.9-1.73-1.65-2.6-2.47a6.08,6.08,0,0,1-1.89-2.79,5.8,5.8,0,0,1,.73-3.89,28.25,28.25,0,0,0,1.71-3.81,13.37,13.37,0,0,0,.6-4,13.73,13.73,0,0,0-2.56-7.82c-.8-1.15-1.67-2.24-2.47-3.38a17.09,17.09,0,0,1-2.11-4c-1.13-3.16-1.52-6.54-2.48-9.75a50.86,50.86,0,0,0-4-9.48c0-.08-.15,0-.11.07a45.06,45.06,0,0,1,3.5,8.58c.82,2.81,1.24,5.71,1.9,8.56a21.72,21.72,0,0,0,1.3,4.1,22.38,22.38,0,0,0,2,3.47c1.57,2.27,3.18,4.51,3.73,7.27a13,13,0,0,1-.95,8.05c-1,2.18-2.46,4.6-1.35,7,1,2.06,3,3.21,4.44,4.88a8.41,8.41,0,0,1,1.8,6.66c-.83,6-6.65,9.32-12.24,9.91a.14.14,0,0,0,0,.27c4.87-.32,10-2.74,12.09-7.42A10.3,10.3,0,0,0,641.62,362.57Z" style="fill:#263238"></path><path d="M626.75,347.11c15.46,23,29.32,67.63,32.57,74.82,2.21,4.87-24.57,12.57-25.57,9-1.29-4.52-15-62.21-17-80.61C615.53,338.43,623.63,342.45,626.75,347.11Z" style="fill:#d3766a"></path><path d="M633.51,429.77c.84,2.27,3.65,11.94,5.72,13.18s13.08,1.2,18.62,1.31,6.67-1.33,6.61-3.12-11.68-2.37-11.68-2.37,15.45,4.49,19.35,5.26,12.86,3.07,14.22.05c.61-1.36-1.83-2.8-1.83-2.8s3.76,1.11,4.4-.64c.72-2-2.26-3.17-2.26-3.17s2.35.5,2.44-1.14c.19-3.66-14.55-5.75-14.55-5.75s11.21,5.4,11.64,2.42c.58-4.12-22.52-9.12-24.9-11a15.59,15.59,0,0,1-3.78-4.57Z" style="fill:#d3766a"></path><path d="M664.36,442.05a1.56,1.56,0,0,0-.5-1.41,4.8,4.8,0,0,0-1.33-.85,18.83,18.83,0,0,0-3.16-1c-2.18-.57-4.41-1-6.63-1.57a29.18,29.18,0,0,1,6.83.86,13.21,13.21,0,0,1,3.25,1.24,4.54,4.54,0,0,1,1.34,1.13A1.59,1.59,0,0,1,664.36,442.05Z" style="fill:#263238"></path><path d="M684.52,441.28c-1.59-.4-3.15-.86-4.72-1.32s-3.12-.94-4.67-1.41l-4.66-1.47c-1.55-.5-3.1-1-4.67-1.46a39.35,39.35,0,0,1,4.84.92c1.6.37,3.17.83,4.73,1.31s3.1,1,4.63,1.59S683,440.6,684.52,441.28Z" style="fill:#263238"></path><path d="M669.63,432.05a32.14,32.14,0,0,1,4.47.67,43,43,0,0,1,4.36,1.15,41.87,41.87,0,0,1,4.22,1.57,33.83,33.83,0,0,1,4,2c-1.42-.49-2.8-1-4.21-1.51s-2.81-1-4.23-1.4-2.85-.87-4.27-1.3S671.08,432.45,669.63,432.05Z" style="fill:#263238"></path><path d="M672,428.61a29.23,29.23,0,0,1,7.11,1.55,28.63,28.63,0,0,1,6.5,3.12c-2.28-.81-4.5-1.67-6.77-2.43S674.29,429.35,672,428.61Z" style="fill:#263238"></path><path d="M583.45,395.77l38.08,28s7.49-18.34,8.42-22.9c1.37-6.76,1.54-19.95,1.54-19.95a13,13,0,0,0,4.86-9.84c-.05-6.59-13.45-26.5-14.43-27.5-3.92-4-10.87-3.67-14.24-1-12.73,10.06-15,28.39-18.38,40.68A40.48,40.48,0,0,1,583.45,395.77Z" style="fill:#d3766a"></path><path d="M624.57,418.91s4.8-11.92,6-19.29a94.73,94.73,0,0,0,.92-18.69,13,13,0,0,0,4.86-9.84c-.05-6.59-13.45-26.5-14.43-27.5-3.92-4-10.87-3.67-14.24-1C595,352.65,590.46,375,587.12,387.3Z" style="fill:#92E3A9"></path><path d="M621.8,390.4a5.37,5.37,0,0,0-1.22,1.72,5.52,5.52,0,0,0,1.73-1.2,5.71,5.71,0,0,0,1.21-1.74A5.52,5.52,0,0,0,621.8,390.4Zm-30.29-5.68a5.74,5.74,0,0,0-1.21,1.72,5.47,5.47,0,0,0,1.72-1.2,5.66,5.66,0,0,0,1.21-1.73A5.62,5.62,0,0,0,591.51,384.72Zm20-18.77a5.47,5.47,0,0,0-1.72-1.2,5.74,5.74,0,0,0,1.21,1.72,5.52,5.52,0,0,0,1.73,1.2A6,6,0,0,0,611.56,366Zm12.57,6.93a5.65,5.65,0,0,0-2.08.37,6.16,6.16,0,0,0,4.15,0A5.59,5.59,0,0,0,624.13,372.88Zm-28.54-3.36a6,6,0,0,0-2.08.37,6.16,6.16,0,0,0,4.15,0A6.08,6.08,0,0,0,595.59,369.52Zm14.25,27.62a5.77,5.77,0,0,0-2.07.37,6.13,6.13,0,0,0,4.14,0A5.77,5.77,0,0,0,609.84,397.14Zm2.07-46.2a5.43,5.43,0,0,0-2.07.37,5.83,5.83,0,0,0,2.07.36,5.6,5.6,0,0,0,2.08-.36A5.23,5.23,0,0,0,611.91,350.94ZM598.46,354c-.22.4-.44.8-.65,1.2a5.08,5.08,0,0,0,.35,1.73,5.79,5.79,0,0,0,.36-2.07A8.1,8.1,0,0,0,598.46,354Zm23.95,50.84a5.65,5.65,0,0,0-.36,2.07,5.9,5.9,0,0,0,.36,2.09,5.7,5.7,0,0,0,.37-2.09A5.46,5.46,0,0,0,622.41,404.84Zm-15.91-24a5.38,5.38,0,0,0-.36,2.07,5.32,5.32,0,0,0,.36,2.07,5.73,5.73,0,0,0,.37-2.07A5.81,5.81,0,0,0,606.5,380.83Zm18.37-24.47a6.19,6.19,0,0,0,0,4.16,6,6,0,0,0,0-4.16Z" style="fill:#fff"></path><path d="M619.42,377.17a26,26,0,0,1,5.67,1.34c.93.35,1.84.76,2.75,1.21.46.22.91.42,1.37.61a4.14,4.14,0,0,0,1.46.4c.05,0,.05.1,0,.11a6.55,6.55,0,0,1-1.4,0,7.22,7.22,0,0,1-1.34-.37c-1-.34-1.88-.75-2.82-1.1a55.83,55.83,0,0,0-5.72-1.94C619.32,377.39,619.33,377.16,619.42,377.17Z" style="fill:#263238"></path><path d="M614.81,379.91a27.5,27.5,0,0,1,4.69-.46,17,17,0,0,1,2.36.18c.37,0,.75.1,1.12.17s.82.23,1.23.3c0,0,0,.11,0,.1-.38,0-.78,0-1.17,0l-1.17,0c-.79,0-1.57,0-2.35,0-1.57,0-3.14-.07-4.7,0C614.73,380.11,614.73,379.92,614.81,379.91Z" style="fill:#263238"></path><path d="M611.25,342.62c.39,1,7.45,7,11.93,6.05,1.46-.31-1.17-8.71-1.17-8.71l0-.62.54-8.63L611.8,326l-1.54-.6s0,2.37,0,5.32v.9c0,.44,0,.89,0,1.34s0,.67,0,1,0,.71,0,1.07A54.7,54.7,0,0,0,611.25,342.62Z" style="fill:#d3766a"></path><path d="M610.31,330.71a17.32,17.32,0,0,0,11.74,8.63l.54-8.63L611.8,326l-1.54-.6S610.27,327.76,610.31,330.71Z" style="fill:#263238"></path><path d="M633.2,316.92c3.14,14.84-5.39,18.4-8.59,19.07-2.91.61-12.88,2.33-17.54-12.11s1.25-20.59,7.82-22.34S630.06,302.08,633.2,316.92Z" style="fill:#d3766a"></path><path d="M630.81,314.66a9.39,9.39,0,0,1-1.06,0,1.74,1.74,0,0,1-1.07-.25.56.56,0,0,1-.11-.66,1.36,1.36,0,0,1,1.27-.53,1.94,1.94,0,0,1,1.34.48A.58.58,0,0,1,630.81,314.66Z" style="fill:#263238"></path><path d="M620.72,316.86c.35-.11.66-.26,1-.39a1.76,1.76,0,0,0,.93-.59.55.55,0,0,0-.11-.66,1.39,1.39,0,0,0-1.37-.09,2,2,0,0,0-1.11.9A.58.58,0,0,0,620.72,316.86Z" style="fill:#263238"></path><path d="M624.67,327.78c.28.22.56.53.94.52a2.84,2.84,0,0,0,1.09-.38,0,0,0,0,1,0,.05,1.39,1.39,0,0,1-1.26.7,1.1,1.1,0,0,1-.91-.83A.06.06,0,0,1,624.67,327.78Z" style="fill:#263238"></path><path d="M628.37,323.35s.46,1.51.58,2.23c0,.07-.16.13-.4.19h0A3.49,3.49,0,0,1,625,325c-.06-.06,0-.15.09-.12a5.22,5.22,0,0,0,3.3.39c0-.21-.89-2.55-.77-2.58a6.4,6.4,0,0,1,1.71.11c-.88-3.16-2.26-6.16-3.09-9.32a.1.1,0,0,1,.18-.08,52.9,52.9,0,0,1,3.75,9.89C630.26,323.73,628.68,323.43,628.37,323.35Z" style="fill:#263238"></path><path d="M629.12,318.15s.09,0,.1.07c.22,1,.65,2.19,1.67,2.31,0,0,0,.05,0,.05C629.71,320.7,629.16,319.17,629.12,318.15Z" style="fill:#263238"></path><path d="M631.06,317.2a3.51,3.51,0,0,1,.13.58,1.76,1.76,0,0,0,.34.33.84.84,0,0,0,.87.1c.57-.29.59-1,.39-1.63,0-.05,0-.07-.06,0-.13.41-.3.85-.67.92s-.66-.17-1-.27Z" style="fill:#263238"></path><path d="M629.36,319.27a1.64,1.64,0,0,0,.54.67,1.15,1.15,0,0,0,.92.16,1.07,1.07,0,0,0,.71-.63,2,2,0,0,0,.1-.85,3,3,0,0,0-.1-.5,2.22,2.22,0,0,0-.48-.94,3,3,0,0,1,.16.76,5.3,5.3,0,0,1,0,.69c0,.47-.19.9-.54,1s-.72-.12-1-.52a8.31,8.31,0,0,1-.64-1.34A3.39,3.39,0,0,0,629.36,319.27Z" style="fill:#263238"></path><path d="M623.33,319.28s-.07.07-.06.11c.25,1,.35,2.26-.52,2.8,0,0,0,.07,0,.06C623.89,321.85,623.73,320.23,623.33,319.28Z" style="fill:#263238"></path><path d="M621.18,319.25a2.71,2.71,0,0,0,.12.58,1.6,1.6,0,0,1-.16.45.84.84,0,0,1-.74.46c-.65,0-1-.66-1.06-1.31,0,0,0-.07,0-.05.29.32.63.64,1,.55s.53-.44.77-.66h0Z" style="fill:#263238"></path><path d="M623.59,320.41a1.5,1.5,0,0,1-.2.83,1.17,1.17,0,0,1-.76.54,1.07,1.07,0,0,1-.91-.27,1.85,1.85,0,0,1-.45-.72,2.83,2.83,0,0,1-.13-.5,2.19,2.19,0,0,1,0-1.05,3.73,3.73,0,0,0,.18.75,4.46,4.46,0,0,0,.28.63c.23.42.56.74.91.65s.59-.41.65-.89a6.63,6.63,0,0,0,0-1.48A3.26,3.26,0,0,1,623.59,320.41Z" style="fill:#263238"></path><path d="M608.64,324.66c3.67-.72,2.93-12.24,2.82-13.65.12.89.74,5.58,1.12,5.71a3.66,3.66,0,0,0,1.12-.41h0a11.47,11.47,0,0,1-.13-1.69c0-.27.19.54.49,1.53l.65-.3a13.55,13.55,0,0,1-.21-3.6c0-.46.47,1.5,1.17,3.17a45.05,45.05,0,0,1,9.39-3.25c.91-.18,1.71-.3,2.42-.38a25.6,25.6,0,0,1-.46-2.52,13.58,13.58,0,0,1,1,2.47l1.07-.09c-.22-2-1.64-4.92-1.26-4.49a13.77,13.77,0,0,1,2.65,4.49c1.37,0,1.78.25,1.76-.1a16.48,16.48,0,0,0-6.55-9.28c-5.31-3.6-14.68-3.22-18.8,4.3,0,0-3.82,3.47-3.78,8.07S606.52,325.07,608.64,324.66Z" style="fill:#263238"></path><path d="M610.45,323.4s-3.86-4.29-5.85-2.86,1.32,7.94,3.93,8.57a2.58,2.58,0,0,0,3.25-1.79Z" style="fill:#d3766a"></path><path d="M605.59,322.38s0,.06,0,.07c1.84.5,3,2,3.82,3.62a1.43,1.43,0,0,0-2.15-.13.06.06,0,0,0,.06.09,1.58,1.58,0,0,1,1.79.34,7.36,7.36,0,0,1,1,1.29c.1.15.38,0,.3-.14l0,0C610.15,325.23,608,322.31,605.59,322.38Z" style="fill:#263238"></path><path d="M470.5,266.41c2,1.23,48.46,57.9,48.88,60.76,0,.32-2.24,2-7.44,7.24-.25.25-.42,2.24-.53,5.22-.4,11.19-1.71,37.72-1.71,37.72l-39.88-9.49,5-43.21,1.3-11.23s-11-36.16-11.16-39.35S468.47,265.19,470.5,266.41Z" style="fill:#d3766a"></path><path d="M472.66,334.6l38.93,6.68s-2.23,58.35-2,59c0,0,27.67,1.77,44.59,0,0,0,11.25-10,29.29-4.56l38.08,28c-5.3,9.11-20.78,20.24-27,21.36-46.76,8.46-114.17,8-123.76-8.48C459.39,417.09,472.66,334.6,472.66,334.6Z" style="fill:#37474f"></path><path d="M475,414.23c-.19-7.32,0-14.65.36-22,.78-14.42,2.47-28.78,4.34-43.09l.69-5.27c0-.1.16-.06.14,0-1.69,14.32-3.46,28.63-4.39,43-.46,7.14-.74,14.3-.7,21.46,0,3.48.09,6.95.27,10.42a39.91,39.91,0,0,0,1.22,8.64,16,16,0,0,0,4.17,7.41,18.54,18.54,0,0,0,7.59,4.07,66.44,66.44,0,0,0,9.29,1.87q5.19.76,10.43,1.17c14,1.08,28,.44,42-.51,14.31-1,28.61-2.17,42.93-3,1.79-.1,3.58-.21,5.38-.34a.08.08,0,0,1,0,.16c-7.38.57-14.75,1.25-22.12,1.82s-14.62,1.15-21.93,1.69c-14.12,1.06-28.3,1.92-42.45,1.09a134.56,134.56,0,0,1-20.41-2.53,27.78,27.78,0,0,1-8.11-2.85,14.72,14.72,0,0,1-5.71-5.87C475.13,426.39,475.13,420,475,414.23Z" style="fill:#263238"></path><path d="M466.17,265.33c2,1.22,48.47,57.9,48.88,60.76,0,.31-2.24,2-7.44,7.24-.24.25-.42,2.24-.53,5.22-.4,11.18-1.7,37.72-1.7,37.72l-39.88-9.49,5-43.21,1.3-11.24S460.75,276.18,460.63,273,464.15,264.11,466.17,265.33Z" style="fill:#d3766a"></path><path d="M469,335.68l38.93,6.69s-2.23,58.34-2,59c0,0,27.67,1.78,44.59.05,0,0,15-11,33-5.55l38,27.91c-5.3,9.11-18.07,20.18-29.86,22.46-46.66,9-115,8-124.56-8.49C455.7,418.17,469,335.68,469,335.68Z" style="fill:#455a64"></path><path d="M507,340.5l.44-7.19v-.05l0-.05c2.43-2.47,4.87-4.91,7.33-7.35l0,.42-11.44-15-11.51-14.9c-3.85-5-7.75-9.87-11.65-14.79s-7.89-9.76-12.16-14.37c4.5,4.39,8.63,9.14,12.67,13.95s8,9.7,11.87,14.63,7.73,9.91,11.51,14.92l5.66,7.53,5.56,7.61.17.23-.2.18q-3.75,3.58-7.55,7.13l0-.1Z" style="fill:#263238"></path><path d="M612.57,351.6c14.84,22.11,27.11,63.19,30.23,70.08,2.12,4.68-22.35,16.42-23.32,13-1.23-4.34-14.42-60.83-16.3-78.49C602,344.76,609.57,347.13,612.57,351.6Z" style="fill:#d3766a"></path><path d="M624.05,442.26c-4.6-2.45-4.94-9.63-4.94-9.63l22.17-13s3.11,6.16,8.22,7.75c1.25.39,7.6,1.39,14,3.44,7.22,2.31,14.49,5.67,14.94,6.46.87,1.53-1.12,3.69-6.34,3.28s-15.28-3-15.92-3a5.73,5.73,0,0,0-.64.14h0c-.25.15-6.42,6.16-9.32,7.89-1.75,1-8.39.42-12.25-.13C627.74,444.58,624.78,442.89,624.05,442.26Z" style="fill:#d3766a"></path><path d="M647,433s12.65-1.74,15-.53,17.67,6.32,18.57,7.83-1.12,3.69-6.34,3.28-15.28-3-15.93-3-11.39,3.33-12.47,3.34S647,433,647,433Z" style="fill:#d3766a"></path><path d="M654,431c1.39.12,2.78.3,4.17.47.69.1,1.38.2,2.08.32l1,.19.52.12.53.19c2.6,1,5.22,2,7.82,3s5.2,2,7.79,3.14a9.12,9.12,0,0,1,1.85,1.1,4.18,4.18,0,0,1,.77.8,1.81,1.81,0,0,1,.37,1.09,1.47,1.47,0,0,1-.52,1,3.3,3.3,0,0,1-.93.56,7.76,7.76,0,0,1-2,.49,9.33,9.33,0,0,0,2-.67,2.78,2.78,0,0,0,.81-.58,1.09,1.09,0,0,0,.35-.82,2.16,2.16,0,0,0-1.06-1.51,8.32,8.32,0,0,0-1.79-1c-2.6-1-5.23-1.95-7.83-3s-5.2-2-7.77-3.16a10.87,10.87,0,0,0-2-.57c-.68-.15-1.37-.28-2-.42Z" style="fill:#263238"></path><path d="M645.19,435.23s13.88-1.85,16.24-.64,17.68,6.32,18.58,7.83-1.12,3.69-6.35,3.28-15.27-3-15.92-3-11.39,3.33-12.47,3.34S645.19,435.23,645.19,435.23Z" style="fill:#d3766a"></path><path d="M651.82,432.44c1.7.23,3.39.52,5.09.81q1.26.24,2.52.51l1.26.3a11.45,11.45,0,0,1,1.25.42c3.19,1.25,6.38,2.5,9.56,3.78l4.77,1.95,1.18.5a10.86,10.86,0,0,1,1.2.57,5,5,0,0,1,1.09.81,2.34,2.34,0,0,1,.72,1.26,1.39,1.39,0,0,1-.12.78,1.74,1.74,0,0,1-.48.58,3.79,3.79,0,0,1-1.21.63,11.41,11.41,0,0,1-2.56.52,15,15,0,0,1-5.14-.42,15.81,15.81,0,0,0,5.09.06,11.69,11.69,0,0,0,2.45-.59,3.65,3.65,0,0,0,1-.59.91.91,0,0,0,.37-.88,1.82,1.82,0,0,0-.58-.91,5.31,5.31,0,0,0-1-.69,24.68,24.68,0,0,0-2.33-1L671.23,439c-3.18-1.29-6.36-2.57-9.52-3.92a8.3,8.3,0,0,0-1.17-.45l-1.22-.35c-.83-.22-1.66-.42-2.49-.61Z" style="fill:#263238"></path><path d="M645.24,434.78s12.42,1.22,14.62,2.34,12.87,4,13.71,5.37-1,3.44-5.91,3.05-10.64-.85-11.24-.85-10.11.17-11.12.17S645.24,434.78,645.24,434.78Z" style="fill:#d3766a"></path><path d="M648.65,434.08c2.18.35,4.35.74,6.53,1.12l3.26.6.81.16a5.84,5.84,0,0,1,.82.22c.54.17,1.06.36,1.58.55,2.07.77,4.13,1.59,6.15,2.49,1,.44,2,.89,3,1.37l1.5.75a10.19,10.19,0,0,1,1.48.89,1.27,1.27,0,0,1,.19,1.93,4.11,4.11,0,0,1-1.45,1.07,7.19,7.19,0,0,1-3.38.7c-2.22-.11-4.42-.28-6.62-.43s-4.43-.33-6.59-.52c-1.09,0-2.2,0-3.3-.06s-2.21-.05-3.32-.12c2.21-.22,4.4-.36,6.63-.44l6.62.45c2.2.14,4.41.29,6.6.38a6.67,6.67,0,0,0,3.05-.61,3.4,3.4,0,0,0,1.21-.86.6.6,0,0,0-.09-1,9.31,9.31,0,0,0-1.35-.82q-.72-.39-1.47-.75c-1-.48-2-.94-3-1.39-2-.89-4-1.79-6.07-2.61-.51-.2-1-.4-1.54-.57a13,13,0,0,0-1.58-.41l-3.23-.7Z" style="fill:#263238"></path><path d="M629.33,385.34,636.49,404l3.55,9.31,1.82,4.64.94,2.3a10.67,10.67,0,0,0,1.06,2.14,19,19,0,0,0,3.46,3.42,8.77,8.77,0,0,0,2,1.21c.74.21,1.59.41,2.38.62l9.66,2.49c1.6.44,3.23.78,4.81,1.36s3.11,1.21,4.64,1.88,3,1.37,4.52,2.1c.74.38,1.5.73,2.21,1.17a2.67,2.67,0,0,1,.89.88,1.06,1.06,0,0,1,0,1.18,1.06,1.06,0,0,0,0-1.16,2.62,2.62,0,0,0-.9-.82,24.33,24.33,0,0,0-2.24-1.08c-1.51-.68-3-1.32-4.59-1.94s-3.08-1.23-4.64-1.76-3.19-.84-4.8-1.26l-9.67-2.38c-.82-.21-1.59-.38-2.45-.62a9.06,9.06,0,0,1-2.25-1.3,19.61,19.61,0,0,1-3.63-3.54,10.76,10.76,0,0,1-1.14-2.31l-.93-2.32-1.78-4.66c-1.17-3.11-2.34-6.22-3.46-9.35l-3.36-9.39Z" style="fill:#263238"></path></g><g id="freepik--character-2--inject-19"><path d="M395.85,151.32c9.49-8.7,25.52-30,25.52-37.08,0-5.66-10.19-22.27-18.41-32-2.22-2.64-16.08,12.72-13.64,15.48,5.11,5.77,11,14.8,11.31,16.45.66,3.42-10,21.06-13.27,29.13C382.21,155.87,389.42,157.21,395.85,151.32Z" style="fill:#c95f50"></path><path d="M381.61,89.1c1.94,4.37,8.35,9.07,8.35,9.07l13-16s-5.07-6.69-6.19-11.46c-.27-1.17-.77-7-2.21-13-1.64-6.75-4.23-13.62-4.92-14.08-1.34-.9-3.45.77-3.42,5.58s1.71,14.16,1.67,14.75c0,.07-.07.26-.16.56h0c-.15.21-6.36,3-7,6.06S381.09,88.39,381.61,89.1Z" style="fill:#c95f50"></path><path d="M391.47,72.64s2.42-11.45,1.47-13.69-4.6-16.57-5.93-17.5-3.44.78-3.41,5.59,1.71,14.15,1.66,14.75S381.47,72,381.4,73,391.47,72.64,391.47,72.64Z" style="fill:#c95f50"></path><path d="M393.75,66.38c0-1.28-.09-2.56-.16-3.84q-.06-1-.15-1.92c0-.32-.06-.64-.11-1,0-.16-.05-.33-.08-.49a3.17,3.17,0,0,0-.13-.49Q392,55,390.91,51.33c-.77-2.45-1.51-4.88-2.35-7.32a7.94,7.94,0,0,0-.89-1.77,3.7,3.7,0,0,0-.68-.75,1.65,1.65,0,0,0-1-.42,1.35,1.35,0,0,0-1,.41,3,3,0,0,0-.58.81,7.71,7.71,0,0,0-.58,1.84,8.76,8.76,0,0,1,.74-1.75,2.54,2.54,0,0,1,.59-.71,1,1,0,0,1,.77-.26,2,2,0,0,1,1.31,1.07,7.67,7.67,0,0,1,.76,1.7c.7,2.44,1.44,4.91,2.19,7.35s1.52,4.89,2.37,7.32a9.47,9.47,0,0,1,.39,1.82c.09.63.16,1.27.25,1.9Z" style="fill:#263238"></path><path d="M389.31,74.16s2.61-12.56,1.65-14.8-4.6-16.57-5.92-17.49-3.45.78-3.42,5.58,1.72,14.16,1.67,14.75-2.7,10.23-2.78,11.22S389.31,74.16,389.31,74.16Z" style="fill:#c95f50"></path><path d="M392.29,68.29c-.09-1.57-.24-3.14-.4-4.7-.09-.78-.19-1.56-.3-2.35,0-.39-.12-.78-.19-1.17a9.12,9.12,0,0,0-.3-1.17q-1.39-4.49-2.82-9l-1.47-4.48-.38-1.11a8.78,8.78,0,0,0-.44-1.13,4.52,4.52,0,0,0-.67-1.06,2.16,2.16,0,0,0-1.1-.74,1.3,1.3,0,0,0-.73.06,1.78,1.78,0,0,0-.56.4,3.49,3.49,0,0,0-.65,1.07,9.92,9.92,0,0,0-.64,2.31,13.6,13.6,0,0,0,0,4.72,14.84,14.84,0,0,1,.28-4.66,10.85,10.85,0,0,1,.7-2.2,3.45,3.45,0,0,1,.61-.91.85.85,0,0,1,.83-.28,1.58,1.58,0,0,1,.79.59,5.32,5.32,0,0,1,.57.95c.29.67.5,1.45.74,2.19l1.43,4.49c1,3,1.92,6,2.95,9a9.87,9.87,0,0,1,.34,1.1c.08.38.16.76.23,1.15.15.77.28,1.54.4,2.31Z" style="fill:#263238"></path><path d="M389.72,74.15s-.29-11.43-1.17-13.52-2.77-12-4-12.89-3.21.73-3.18,5.2.07,9.78,0,10.33-.82,9.23-.89,10.15S389.72,74.15,389.72,74.15Z" style="fill:#c95f50"></path><path d="M390.59,71.08c-.18-2-.39-4-.6-6-.1-1-.21-2-.33-3l-.09-.75a6.17,6.17,0,0,0-.15-.77c-.11-.5-.25-1-.39-1.48q-.86-2.91-1.87-5.78c-.34-1-.69-1.91-1.06-2.86-.18-.47-.37-.94-.58-1.41a9.8,9.8,0,0,0-.71-1.41A1.31,1.31,0,0,0,384,47a1.34,1.34,0,0,0-.95.25A3.65,3.65,0,0,0,382,48.51a6.51,6.51,0,0,0-.86,3c-.05,2-.05,4.06-.05,6.08s0,4.07,0,6c0,1-.11,2-.17,3s-.09,2-.11,3c.35-2,.62-4,.85-6l0-6.09c0-2,0-4.05.09-6.05a6,6,0,0,1,.76-2.75,3.08,3.08,0,0,1,.86-1,.55.55,0,0,1,.88.14,9.14,9.14,0,0,1,.66,1.29c.2.46.4.92.58,1.39.38.93.73,1.88,1.08,2.82.68,1.9,1.37,3.8,2,5.73.15.48.3,1,.43,1.44a13.65,13.65,0,0,1,.26,1.47l.43,3Z" style="fill:#263238"></path><path d="M406.75,146.24a.46.46,0,0,1-.37.49l-1.89.12c-1.7-4.41-3.53-7.91-3.05-6.54a22.47,22.47,0,0,1,1.19,6.66l-3.73.18c-1.48-7.76-3.36-13.52-3.25-11.74.48,7.17.06,9.47-.44,11.93-9,.43-20.83.85-29.38,1-1-4.3-1.85-8.94-2-8.62-1.17,2.43-1.48,6-1.51,8.66-2.72,0-4.9,0-6.22-.1,0,0-.64-3.61-.73-4.8a24.71,24.71,0,0,1,.95-9,44.72,44.72,0,0,1,3.95-8.4l0-.06s0,0,0,0a25.72,25.72,0,0,0,2.27-5.6s0,0,0,0a23.79,23.79,0,0,0,.71-4.31c.39-5.3,3.38-9.89,8.36-11.29,9.41-8.87,18.84-5.15,21.69,1.64.27.66.54,1.42.8,2.25v0c1,3.06,1.83,7,2.63,10.11v0s0,0,0,0h0a28.85,28.85,0,0,0,1.12,3.55C400.31,127.87,405.74,131,406.75,146.24Z" style="fill:#263238"></path><path d="M369.5,106.16a10,10,0,0,0-5.78,8.07,26.3,26.3,0,0,1-1.31,6.59,23.29,23.29,0,0,1-3.76,5.8c-2.31,2.87-3.92,5.72-4.28,9.52a29,29,0,0,0,1.13,12s0,0,0,0a30.83,30.83,0,0,1-.44-12.52c.71-4.2,3.09-6.85,5.52-10a17.53,17.53,0,0,0,3.57-8.57c.24-1.92.21-3.91,1-5.71.92-2.15,2.75-3.52,4.57-4.74A.23.23,0,0,0,369.5,106.16Z" style="fill:#263238"></path><path d="M403.41,128.27c-2.31-3-4.71-5.57-6.06-9.3-1.24-3.39-1.94-7-3.2-10.38a0,0,0,1,0-.08,0c1.93,6,2.31,12.11,6.2,17.17,2.12,2.75,4.24,5.3,5.63,8.61a29.4,29.4,0,0,1,2.2,10.89c0,.14.17.13.18,0A24.3,24.3,0,0,0,403.41,128.27Z" style="fill:#263238"></path><path d="M438,458.36c-2.36.73-60.29,1-62.8-.69-1-.62-1.31-10.39-1.38-22.2v-.37c0-2.44-1.64-43.34-1.64-43.34l42.78.88,2.06,43,0,.73s16.34,10.24,18.91,12.38S440.3,457.63,438,458.36Z" style="fill:#c95f50"></path><path d="M351.19,199.52s6.17,37.58,6.59,38.79c0,0,2.29,1.08,6.43,3l9.2,183.59,43.07.44s-1.25-150.72-8-203.19c-.74-5.73-4.69-22.63-4.69-22.63Z" style="fill:#263238"></path><path d="M386.74,314.18c.49-2.56-9.75-74.26-11.82-76.68-.23-.3-24.06,2.39-24.06,2.39-1.23.55-37.4-4.08-37.4-4.08l.72,45.87,44.6,4.44s5.39,9.13,10.58,17l0,0c3.18,4.87,6.06,9.07,7,10C379,315.55,386.28,316.73,386.74,314.18Z" style="fill:#c95f50"></path><path d="M378.39,199.52h-29.3s-2.14,7.55-3.69,8.16c-8.46,3.33-44.37,13-65.16,24-17.89,9.46-19.69,33,4.61,42.31,33.32,12.79,68,11.51,68,11.51l.57-46.74s-26.15-3.57-51.09-2.95c0,0,26.38,7.93,54.53,3.09,6.44-1.1,19-7.62,19-7.62Z" style="fill:#263238"></path><path d="M290.29,235.48a136.74,136.74,0,0,1,15.79-.88c-2-.45-4.07-.81-6.1-1.12-.11,0-.12-.2,0-.19a38,38,0,0,1,7.06,1.3c3.49,0,7,.12,10.46.3,9.12.47,11.1.66,20.18,1.56,5.16.5,10.42,1.71,15.58,2.24a.45.45,0,0,1,.43.45c0,1.35-.11,2.7-.16,4.05a.27.27,0,0,1-.53,0c-.05-1.22-.14-2.43-.17-3.65-9-.74-10.94-1.52-19.91-2.29s-18.19-1.36-27.31-1.57c-5.11-.12-10.2-.14-15.31,0C290.21,235.67,290.18,235.5,290.29,235.48Z" style="fill:#37474f"></path><path d="M381.76,228.29a139,139,0,0,0-22.95,9.79c-.29.15-.13.61.18.49,7.71-3,15.5-6.32,23.05-9.77C382.63,228.53,382.36,228.1,381.76,228.29Z" style="fill:#37474f"></path><path d="M400,180.14l4,20.71-54.92-1.33s7.5-41.1,17-52.71c6.43-7.86,14.52-7.77,20-2.86,1.37,1.25,12.59,16.26,14.69,24A19.13,19.13,0,0,1,400,180.14Z" style="fill:#455a64"></path><path d="M362.22,157.88a1.61,1.61,0,0,1-1.61,1.6,1.55,1.55,0,0,1-.9-.28c.38-1,.76-2,1.16-2.9A1.59,1.59,0,0,1,362.22,157.88Zm13.63-1.6a1.6,1.6,0,1,0,1.61,1.6A1.6,1.6,0,0,0,375.85,156.28Zm15.24,0a1.6,1.6,0,1,0,1.6,1.6A1.6,1.6,0,0,0,391.09,156.28ZM368.4,144.4a18.33,18.33,0,0,0-1.75,1.77,1.58,1.58,0,0,0,1.58,1.42,1.6,1.6,0,0,0,.17-3.19Zm15.07,0a1.61,1.61,0,1,0,1.6,1.6A1.6,1.6,0,0,0,383.47,144.38Zm-22.86,35.69a1.6,1.6,0,1,0,1.61,1.6A1.6,1.6,0,0,0,360.61,180.07Zm15.24,0a1.6,1.6,0,1,0,1.61,1.6A1.6,1.6,0,0,0,375.85,180.07Zm15.24,0a1.6,1.6,0,1,0,1.6,1.6A1.6,1.6,0,0,0,391.09,180.07Zm-22.86-11.9a1.61,1.61,0,1,0,1.61,1.61A1.61,1.61,0,0,0,368.23,168.17Zm15.24,0a1.61,1.61,0,1,0,1.6,1.61A1.61,1.61,0,0,0,383.47,168.17Zm15.24,0a1.61,1.61,0,1,0,1.6,1.61A1.6,1.6,0,0,0,398.71,168.17ZM353,192a1.61,1.61,0,1,0,1.61,1.61A1.61,1.61,0,0,0,353,192Zm15.24,0a1.61,1.61,0,1,0,1.61,1.61A1.61,1.61,0,0,0,368.23,192Zm15.24,0a1.61,1.61,0,1,0,1.6,1.61A1.61,1.61,0,0,0,383.47,192Zm15.24,0a1.61,1.61,0,1,0,1.6,1.61A1.6,1.6,0,0,0,398.71,192Z" style="fill:#37474f"></path><path d="M380.21,177a48.82,48.82,0,0,1,8.05,1.25c1.31.34,2.6.74,3.89,1.17.65.22,1.29.41,1.94.59a7.48,7.48,0,0,0,2.08.38c.06,0,.06.11,0,.11a13.22,13.22,0,0,1-2,0,13.52,13.52,0,0,1-1.9-.35c-1.34-.33-2.66-.72-4-1.06-2.69-.69-5.38-1.38-8.11-1.86C380.06,177.19,380.08,177,380.21,177Z" style="fill:#263238"></path><path d="M373.62,179.77a55.17,55.17,0,0,1,6.68-.52c1.12,0,2.23,0,3.34.14.53,0,1.07.09,1.6.15s1.16.23,1.75.28c.06,0,.06.11,0,.11-.56,0-1.12,0-1.67,0h-1.67c-1.12,0-2.23,0-3.34,0-2.24,0-4.46,0-6.69,0C373.5,180,373.5,179.79,373.62,179.77Z" style="fill:#263238"></path><path d="M374.78,142.37c.38,1.49,4.5,8.09,9.1,7.58,2.37-.26,1.78-8.58,1.78-8.58l.07-.62,1-8.69-12.18-6S374.67,141.94,374.78,142.37Z" style="fill:#c95f50"></path><path d="M374.59,132a17.57,17.57,0,0,0,11.15,8.77l1-8.69-12.19-6S374.55,128.76,374.59,132Z" style="fill:#263238"></path><path d="M397.72,118c2.5,15.13-6.28,18.34-9.54,18.88-3,.48-13.12,1.76-17.17-13s2.19-20.74,8.91-22.22S395.22,102.87,397.72,118Z" style="fill:#c95f50"></path><path d="M393.37,114.91c-.36,0-.7-.07-1.05-.11a1.73,1.73,0,0,1-1.06-.32.56.56,0,0,1-.07-.66,1.39,1.39,0,0,1,1.3-.46,2,2,0,0,1,1.31.57A.58.58,0,0,1,393.37,114.91Z" style="fill:#263238"></path><path d="M382.94,116a9.9,9.9,0,0,0,1-.33,1.75,1.75,0,0,0,1-.52.56.56,0,0,0-.07-.67,1.35,1.35,0,0,0-1.36-.17,2,2,0,0,0-1.17.83A.58.58,0,0,0,382.94,116Z" style="fill:#263238"></path><path d="M385.38,119.66s-.08.06-.07.11c.17,1,.18,2.24-.71,2.7,0,0,0,.07,0,.06C385.74,122.22,385.7,120.62,385.38,119.66Z" style="fill:#263238"></path><path d="M384.31,118.7c-1.68.09-1.38,3.45.18,3.37S385.72,118.63,384.31,118.7Z" style="fill:#263238"></path><path d="M383.67,118.94c-.28.22-.54.58-.89.64s-.74-.24-1-.56c0,0-.06,0-.05,0,0,.64.35,1.28,1.05,1.31s1-.58,1.14-1.24C383.9,119,383.78,118.85,383.67,118.94Z" style="fill:#263238"></path><path d="M391.76,118.92s.09,0,.09.09c0,1,.29,2.23,1.26,2.5,0,0,0,.06,0,0C391.94,121.5,391.64,119.92,391.76,118.92Z" style="fill:#263238"></path><path d="M392.6,117.76c1.67-.27,2.07,3.08.53,3.33S391.21,118,392.6,117.76Z" style="fill:#263238"></path><path d="M393.33,117.89c.28.15.58.44.9.42s.6-.41.79-.79c0,0,.05,0,.06,0,.09.64,0,1.33-.64,1.53s-1-.32-1.26-.94C393.14,118,393.21,117.84,393.33,117.89Z" style="fill:#263238"></path><path d="M386.61,127.82c.22.28.42.65.79.73a2.65,2.65,0,0,0,1.15-.11,0,0,0,0,1,0,.06,1.41,1.41,0,0,1-1.39.38,1.09,1.09,0,0,1-.69-1C386.5,127.8,386.58,127.78,386.61,127.82Z" style="fill:#263238"></path><path d="M391,123.68a22.62,22.62,0,0,1,.45,2.26,4,4,0,0,1-3.95-.79c-.07-.06,0-.16.09-.12a5.29,5.29,0,0,0,3.28.59c0-.21-.73-2.6-.61-2.62a6.68,6.68,0,0,1,1.7.21c-.69-3.21-1.88-6.29-2.51-9.49a.1.1,0,0,1,.19-.07,53.48,53.48,0,0,1,3.13,10.11C392.84,124.17,391.28,123.77,391,123.68Z" style="fill:#263238"></path><path d="M390.41,126a3.69,3.69,0,0,1-1.42,1.3,1.68,1.68,0,0,1-1,.16c-.77-.14-.85-.82-.76-1.42a3.94,3.94,0,0,1,.26-.93A4.92,4.92,0,0,0,390.41,126Z" style="fill:#263238"></path><path d="M389,127.26a1.68,1.68,0,0,1-1,.16c-.77-.14-.85-.82-.76-1.42A1.75,1.75,0,0,1,389,127.26Z" style="fill:#ff9bbc"></path><path d="M371.66,104.2c1.32-.49,2.57-7.86-2.27-11.37s-11.05.5-8.45,6.54C362.59,103.18,368.87,105.24,371.66,104.2Z" style="fill:#263238"></path><path d="M362.62,92.4a8.27,8.27,0,0,0-2.8,4.67,5,5,0,0,0,1.47,4.74,10,10,0,0,0,4.81,2.36,16.13,16.13,0,0,0,2.77.34,7.79,7.79,0,0,0,2.79-.31,6.65,6.65,0,0,1-2.77.82,12.5,12.5,0,0,1-2.93,0,9.68,9.68,0,0,1-5.39-2.41,5.67,5.67,0,0,1-1.6-2.64,5.84,5.84,0,0,1,.06-3.05A7.24,7.24,0,0,1,362.62,92.4Z" style="fill:#263238"></path><path d="M371.83,123.37c2.88.19,3.23-6.4,3.23-6.4s12.05-2.79,12.49-12.77a16.83,16.83,0,0,0,9,8.67s-1.08-10.84-9.82-12.44c0,0-10.93-3.26-16.44,5.59S369.9,123.24,371.83,123.37Z" style="fill:#263238"></path><path d="M387.55,103.46a10.67,10.67,0,0,1-.27,4.56,11.19,11.19,0,0,1-2.06,4.14,9.2,9.2,0,0,1-.77.87l-.4.43-.45.38c-.3.24-.59.49-.9.72l-1,.61c-.16.1-.32.21-.49.3l-.53.24-1,.47c-.73.25-1.46.46-2.19.66.68-.35,1.38-.62,2.05-1l1-.55.49-.27.45-.33.91-.64.83-.73.41-.37.38-.41c.23-.28.51-.53.72-.83a13.06,13.06,0,0,0,2.09-3.87,13.44,13.44,0,0,0,.56-2.16A13,13,0,0,0,387.55,103.46Z" style="fill:#263238"></path><path d="M373.61,122.69s-3.71-4.52-5.78-3.16,1,8.09,3.58,8.84a2.59,2.59,0,0,0,3.36-1.66Z" style="fill:#c95f50"></path><path d="M368.75,121.44a0,0,0,0,0,0,.07c1.84.58,2.9,2.16,3.7,3.83a1.44,1.44,0,0,0-2.17-.23.05.05,0,0,0,.05.09,1.62,1.62,0,0,1,1.8.42,8,8,0,0,1,.95,1.35c.09.16.37,0,.3-.13l0,0C373.22,124.52,371.21,121.48,368.75,121.44Z" style="fill:#263238"></path><path d="M371.66,127.78a.66.66,0,0,0,.84.4.67.67,0,0,0,.4-.85.66.66,0,0,0-.84-.4A.67.67,0,0,0,371.66,127.78Z" style="fill:#455a64"></path><path d="M372,127.66a.31.31,0,1,0,.58-.21.3.3,0,0,0-.39-.19A.31.31,0,0,0,372,127.66Z" style="fill:#263238"></path><path d="M370.45,127.06a.47.47,0,0,0,.59.29.48.48,0,0,0,.29-.6.47.47,0,0,0-.6-.28A.46.46,0,0,0,370.45,127.06Z" style="fill:#455a64"></path><path d="M371.66,144.33c-5.94-1.66-12.78,18.93-7.48,20.62C370.42,167,376.78,145.77,371.66,144.33Z" style="fill:#c95f50"></path><path d="M364.59,154.47c-9.64-8.9-22-26-25-34.63-2-5.74,13.81-28.72,19.41-38.58,1.94-3.41,14.06,13.1,12.32,16.91-3.15,6.92-10.45,17.16-10,19.74.78,4.19,2.8,10.24,8.4,20.77C377.12,152.59,371.35,160.71,364.59,154.47Z" style="fill:#c95f50"></path><path d="M363.61,148.59s3.15,4.11,3.58,6,1.06,4.32,1.06,4.32" style="fill:#263238"></path><path d="M379.65,89.1c-1.95,4.37-8.35,9.07-8.35,9.07l-13-16s5.08-6.69,6.19-11.46c.28-1.17.77-7,2.22-13,1.64-6.75,4.22-13.62,4.92-14.08,1.34-.9,3.45.77,3.41,5.58S373.32,63.42,373.37,64a3.09,3.09,0,0,0,.16.56h0c.15.21,6.36,3,7,6.06S380.17,88.39,379.65,89.1Z" style="fill:#c95f50"></path><path d="M369.79,72.64S367.36,61.19,368.32,59s4.6-16.57,5.92-17.5,3.45.78,3.42,5.59S375.94,61.19,376,61.79,379.78,72,379.86,73,369.79,72.64,369.79,72.64Z" style="fill:#c95f50"></path><path d="M367.51,66.38c0-1.28.09-2.56.15-3.84,0-.64.1-1.28.16-1.92,0-.32.06-.64.11-1a4.13,4.13,0,0,1,.07-.49c0-.17.09-.35.13-.49q1.1-3.68,2.22-7.35c.76-2.45,1.51-4.88,2.34-7.32a8.39,8.39,0,0,1,.89-1.77,4,4,0,0,1,.68-.75,1.71,1.71,0,0,1,1-.42,1.35,1.35,0,0,1,1,.41,2.78,2.78,0,0,1,.57.81,6.9,6.9,0,0,1,.58,1.84,8.18,8.18,0,0,0-.73-1.75,2.94,2.94,0,0,0-.59-.71,1.06,1.06,0,0,0-.78-.26,2,2,0,0,0-1.31,1.07,7.64,7.64,0,0,0-.75,1.7c-.71,2.44-1.44,4.91-2.19,7.35s-1.52,4.89-2.38,7.32a9.47,9.47,0,0,0-.38,1.82c-.09.63-.17,1.27-.25,1.9Z" style="fill:#263238"></path><path d="M372,74.16s-2.61-12.56-1.66-14.8,4.61-16.57,5.93-17.49,3.45.78,3.42,5.58S377.92,61.61,378,62.2s2.7,10.23,2.77,11.22S372,74.16,372,74.16Z" style="fill:#c95f50"></path><path d="M369,68.29c.1-1.57.25-3.14.4-4.7.1-.78.19-1.56.3-2.35.06-.39.12-.78.2-1.17a9.12,9.12,0,0,1,.3-1.17q1.38-4.49,2.82-9l1.47-4.48.37-1.11a10.53,10.53,0,0,1,.44-1.13,4.87,4.87,0,0,1,.67-1.06,2.19,2.19,0,0,1,1.11-.74,1.27,1.27,0,0,1,.72.06,1.67,1.67,0,0,1,.56.4,3.52,3.52,0,0,1,.66,1.07,11,11,0,0,1,.64,2.31,13.85,13.85,0,0,1,0,4.72,14.84,14.84,0,0,0-.28-4.66,11.54,11.54,0,0,0-.71-2.2,3.42,3.42,0,0,0-.6-.91.86.86,0,0,0-.84-.28,1.62,1.62,0,0,0-.79.59,4.75,4.75,0,0,0-.56.95c-.3.67-.5,1.45-.75,2.19l-1.42,4.49c-1,3-1.93,6-3,9a9.77,9.77,0,0,0-.33,1.1c-.09.38-.17.76-.24,1.15q-.21,1.16-.39,2.31Z" style="fill:#263238"></path><path d="M371.54,74.15s.28-11.43,1.17-13.52,2.77-12,4-12.89,3.21.73,3.18,5.2-.08,9.78,0,10.33.82,9.23.89,10.15S371.54,74.15,371.54,74.15Z" style="fill:#c95f50"></path><path d="M370.67,71.08c.18-2,.39-4,.59-6,.1-1,.22-2,.34-3l.09-.75a6.17,6.17,0,0,1,.14-.77c.12-.5.26-1,.4-1.48.57-1.94,1.18-3.87,1.87-5.78.34-1,.68-1.91,1.06-2.86q.27-.71.57-1.41a11.06,11.06,0,0,1,.72-1.41,1.28,1.28,0,0,1,.81-.56,1.35,1.35,0,0,1,.95.25,3.76,3.76,0,0,1,1.07,1.26,6.51,6.51,0,0,1,.86,3c.05,2,0,4.06.05,6.08s0,4.07,0,6c0,1,.1,2,.16,3s.1,2,.11,3c-.34-2-.62-4-.84-6l0-6.09c0-2,0-4.05-.1-6.05a6.15,6.15,0,0,0-.75-2.75,3,3,0,0,0-.87-1,.54.54,0,0,0-.87.14,8.19,8.19,0,0,0-.66,1.29c-.21.46-.4.92-.59,1.39-.37.93-.73,1.88-1.07,2.82-.68,1.9-1.38,3.8-2,5.73-.15.48-.3,1-.43,1.44a10,10,0,0,0-.26,1.47l-.43,3Z" style="fill:#263238"></path></g><g id="freepik--character-1--inject-19"><path d="M162.65,386.27H201l6.52,7.46c13.14-.6,28.26-.83,42.35,2.22,25.85,5.6,35.16,39.71,3,52.91-26.21,10.75-126.71-10.64-126.71-10.64l22.7-37s27.34-1,60-.68L163,405.23Z" style="fill:#37474f"></path><path d="M135.84,437.05c.52-1.07,6.55-10.24,7.89-12.34,2.72-4.26,5.33-8.58,7.87-12.94,1.44-2.49,2.89-5,4.24-7.5a.05.05,0,1,0-.09,0c-2.85,4.22-5.56,8.55-8.32,12.83S136,435.68,135.58,436.91C135.48,437.17,135.72,437.31,135.84,437.05Z" style="fill:#263238"></path><path d="M248.18,400.47c-3.24-.23-6.48-.31-9.73-.45l-4-.14a59.15,59.15,0,0,1,6.37-.74.12.12,0,0,0,0-.24,36.94,36.94,0,0,0-7.63.93l-4.49-.13c-6.48-.16-13-.17-19.46-.14-12.91.07-25.82.33-38.73.69-3.64.11-7.28.22-10.92.36s-7.3.3-10.91.7c-.07,0-.07.1,0,.1,3.24.18,6.49.12,9.73.12s6.49-.11,9.73-.18q9.74-.23,19.47-.4c12.9-.22,25.81-.27,38.72-.26,3.64,0,7.28,0,10.92,0s7.28.12,10.92.1C248.41,400.8,248.39,400.49,248.18,400.47Z" style="fill:#263238"></path><path d="M277.12,402.2c-.67-.28-65.78-3.3-65.78-3.3-2.19,1.12-3.1,8.67-3.1,8.67.25,1.15-22.21,6.06-22.21,6.06l26,28.84,36.06-21.29s25.37-9.64,26.34-10.3C276.9,409.12,279.22,403.05,277.12,402.2Z" style="fill:#eb9481"></path><path d="M163.27,406.25v1.64l-86-3C95.81,404.25,133.8,405.25,163.27,406.25Z" style="fill:#37474f"></path><path d="M81.74,404.87l7.63-.26,1.24.59Z" style="fill:#37474f"></path><path d="M224.7,443.86S117.13,458.3,83.61,446.59c-26.72-9.34-24.72-37.07-6.31-47.78.31-.19.63-.37,1-.54l.87-.44.18-.09.69-.33.45-.19.74-.32.19-.07c.31-.13.63-.25.95-.36l.1,0c.3-.11.6-.21.91-.3l.49-.16c.24-.07.48-.15.73-.21s.75-.21,1.14-.3c22.43-5.39,51-1.24,51-1.24l9-8h17.57v20c-29.47-1-67.46-2-86-1.38l86,3v-1.64c22.58.75,40.15,1.5,40.15,1.5Z" style="fill:#37474f"></path><path d="M150.78,405.85c-24.84-.78-52.62-1.41-69.35-1.09-.2-1.24,0-2.25.74-2.56S148,398.9,148,398.9C149.47,399.68,150.37,403.55,150.78,405.85Z" style="fill:#37474f"></path><path d="M209.26,399.56h1.34a6.57,6.57,0,0,0-.67,1.16q-11.16.06-22.3.23-9.74.17-19.47.4c-3.24.07-6.49.18-9.73.18s-6.49.06-9.73-.12c-.07,0-.07-.09,0-.1,3.61-.4,7.28-.57,10.91-.7s7.28-.26,10.92-.35C183.43,399.89,196.35,399.63,209.26,399.56Z" style="fill:#263238"></path><path d="M248.35,400.66c-6.85-.33-13.95-.68-20.07-1h.44c1.5,0,3,.07,4.49.13a37,37,0,0,1,7.63-.94.12.12,0,0,1,0,.24c-2.14.13-4.26.4-6.38.73l4,.15c3.25.14,6.5.22,9.73.45A.17.17,0,0,1,248.35,400.66Z" style="fill:#263238"></path><path d="M150.78,405.85c-24.84-.78-52.62-1.41-69.35-1.09-.2-1.24,0-2.25.74-2.56S148,398.9,148,398.9C149.47,399.68,150.37,403.55,150.78,405.85Z" style="fill:#eb9481"></path><path d="M204.34,408.89a11.69,11.69,0,0,0-.85-1.66c-19.92-1.16-34.72-1.55-51.64-2s-33.83-.74-50.75-.79c-9.28,0-18.69,0-27.83,1.72-.12,0-.09.24,0,.22a191.76,191.76,0,0,1,25-.9c8.4.14,16.81.24,25.21.4q25.24.47,50.49,1.32c9.45.34,19.86.57,29.31.9a5.79,5.79,0,0,0,.71,1.15C204.31,409.32,204.46,409.16,204.34,408.89Z" style="fill:#263238"></path><path d="M225.48,444.05c-.75-1.18-1.5-2.36-2.24-3.55a31.19,31.19,0,0,0-2.3-3.4c-.18-.22-.45.08-.35.29a29.5,29.5,0,0,0,2.06,3.57l1.86,3c-2.44.28-4.89.53-7.33.8l-7.81.86c-5.27.57-10.54,1.07-15.81,1.6-3,.3-6,.54-9,.92a.07.07,0,0,0,0,.14c2.67,0,5.34-.13,8-.27s5.22-.31,7.83-.51c5.28-.42,10.55-.92,15.8-1.58,3-.37,5.94-.82,8.91-1.26A.39.39,0,0,0,225.48,444.05Z" style="fill:#263238"></path><path d="M212.71,442.46c-.73-.92-6.37-10.35-7.67-12.47q-4-6.45-8.22-12.72c-1.61-2.38-3.21-4.76-4.91-7.08,0-.05-.12,0-.08.05,2.56,4.41,5.27,8.73,7.92,13.09s11.82,18.36,12.72,19.31C212.66,442.84,212.89,442.69,212.71,442.46Z" style="fill:#263238"></path><path d="M169.91,333.3c0,8.84-16,48.12-24.16,55-2.79,2.34-25.32,8-38,8.14-5.28.07-10.09-24.85-2.29-26.73,6.37-1.54,27.23-5.21,27.91-5.87,4.83-4.68,12.78-19.3,25.39-33C166,322.93,169.91,326.48,169.91,333.3Z" style="fill:#eb9481"></path><path d="M113.22,395.79c-8.79,3-19.56,3.62-23.23,2.46s-14.55-10.5-16.57-13.11.07-15.51.66-18.4c.46-2.32,2.81-4,5,.35,2.84,5.56,1.29,11.71,2.5,13.05s7.62,2.58,9.57.75c1.15-1.08,1.55-4.67-.4-6.75s-5.17-2-8.41-4S77.72,363,79,362.28s2.42.69,7.82,1.69c3.48.64,8.69-.66,15,1.34a75.34,75.34,0,0,1,9.08,4.19Z" style="fill:#eb9481"></path><path d="M95.24,392.36c-4.47.83-13.79.95-19.74-2-4-2-13.78-9.36-12-12.27,2.5-4.15,15.83,4,17.66,4.47,5.64,1.48,12.91-.91,12.91-.91Z" style="fill:#eb9481"></path><path d="M87.51,383a16.08,16.08,0,0,1-4,.43,11.82,11.82,0,0,1-2-.24,9.87,9.87,0,0,1-1.94-.68c-1.22-.55-2.4-1.15-3.55-1.81s-2.27-1.35-3.41-2a59.9,59.9,0,0,1,7.35,2.94,12.19,12.19,0,0,0,3.65,1C84.87,382.77,86.18,382.86,87.51,383Z" style="fill:#263238"></path><path d="M96.23,393.2C92,394.72,83,396.36,76.81,394.51c-4.22-1.25-14.85-6.81-13.63-9.9,1.74-4.43,16,1.27,17.81,1.44,5.7.51,12.34-3,12.34-3Z" style="fill:#eb9481"></path><path d="M87.54,385.18a13.84,13.84,0,0,1-5.64,1.44A14.63,14.63,0,0,1,79,386l-2.77-.73c-1.84-.49-3.68-1-5.51-1.54s-3.66-1.1-5.55-.58a6,6,0,0,1,2.85-.53,17.11,17.11,0,0,1,2.87.41c1.88.38,3.74.82,5.59,1.29.93.23,1.85.48,2.77.73l1.38.38a6.55,6.55,0,0,0,1.31.28A24,24,0,0,0,87.54,385.18Z" style="fill:#263238"></path><path d="M99.38,398.61c-6.19.52-15.58.23-18.32-.43s-12.73-4.5-13.42-7.65c-.86-3.95,7.39-2,10.84-1.26s8.19-.92,8.19-.92Z" style="fill:#eb9481"></path><path d="M67.58,390a2.64,2.64,0,0,1,.28-1.16,1.85,1.85,0,0,1,.93-.79,5.78,5.78,0,0,1,2.39-.33,24.28,24.28,0,0,1,4.73.66,19.26,19.26,0,0,0,4.54.7,15.77,15.77,0,0,0,4.47-.89c2.94-.95,5.74-2.5,8.88-3.24a20.22,20.22,0,0,1,4.76-.46,19.47,19.47,0,0,1,4.7.6,23,23,0,0,0-4.69-.2,20.09,20.09,0,0,0-4.59.74c-2.94.94-5.7,2.48-8.75,3.51a15.3,15.3,0,0,1-4.77.86,17.4,17.4,0,0,1-4.73-.91,26.55,26.55,0,0,0-4.58-.92,5.76,5.76,0,0,0-2.27.11A1.94,1.94,0,0,0,67.58,390Z" style="fill:#263238"></path><path d="M161.46,363.6l-14.74-20s8-9.6,13.15-14.29c6.84-6.2,11.76-5.17,10.45,6.07C169.45,342.92,161.46,363.6,161.46,363.6Z" style="fill:#92E3A9"></path><g style="opacity:0.2"><path d="M161.46,363.6l-14.74-20s8-9.6,13.15-14.29c6.84-6.2,11.76-5.17,10.45,6.07C169.45,342.92,161.46,363.6,161.46,363.6Z"></path></g><path d="M161.86,360.18c-1.94-3.06-3.93-6.08-6.05-9-1.06-1.46-5.59-7.1-6.67-8.54-.06-.08-.17,0-.12.09,1.16,1.91,5.4,7.69,6.47,9.15,2.12,2.92,4.2,5.45,6.25,8.42C161.8,360.36,161.91,360.26,161.86,360.18Z" style="fill:#263238"></path><path d="M170.32,335.4c-.88,7.52-8.86,28.21-8.86,28.21L148.7,346.3l18.75-20.69h0C169.85,326.05,171.05,329.15,170.32,335.4Z" style="opacity:0.1"></path><path d="M176.13,333.3c0,8.84,16,48.12,24.15,55,2.79,2.34,25.33,8,38,8.14,5.27.07,10.09-24.85,2.29-26.73-6.38-1.54-27.24-5.21-27.92-5.87-4.82-4.68-12.77-19.3-25.39-33C180,322.93,176.12,326.48,176.13,333.3Z" style="fill:#eb9481"></path><path d="M232.82,395.79c8.79,3,19.56,3.62,23.23,2.46s14.55-10.5,16.57-13.11-.08-15.51-.66-18.4c-.47-2.32-2.81-4-5,.35-2.84,5.56-1.28,11.71-2.5,13.05s-7.61,2.58-9.56.75c-1.15-1.08-1.55-4.67.39-6.75s5.17-2,8.42-4,4.63-7.08,3.39-7.82-2.42.69-7.82,1.69c-3.47.64-8.69-.66-15,1.34a75.73,75.73,0,0,0-9.07,4.19Z" style="fill:#eb9481"></path><path d="M250.79,392.36c4.47.83,13.79.95,19.75-2,4-2,13.77-9.36,12-12.27-2.5-4.15-15.83,4-17.67,4.47-5.64,1.48-12.91-.91-12.91-.91Z" style="fill:#eb9481"></path><path d="M258.52,383c1.33-.11,2.64-.2,3.92-.37a12.11,12.11,0,0,0,3.65-1,60.54,60.54,0,0,1,7.35-2.94c-1.14.69-2.25,1.4-3.41,2s-2.32,1.26-3.54,1.81a10.2,10.2,0,0,1-1.95.68,11.71,11.71,0,0,1-2,.24A16.11,16.11,0,0,1,258.52,383Z" style="fill:#263238"></path><path d="M249.81,393.2c4.19,1.52,13.18,3.16,19.42,1.31,4.21-1.25,14.84-6.81,13.63-9.9-1.75-4.43-16,1.27-17.82,1.44-5.7.51-12.33-3-12.33-3Z" style="fill:#eb9481"></path><path d="M258.5,385.18a24,24,0,0,0,5.59.56,6.46,6.46,0,0,0,1.3-.28l1.39-.38c.92-.25,1.84-.5,2.77-.73,1.85-.47,3.71-.91,5.58-1.29a17.23,17.23,0,0,1,2.88-.41,6,6,0,0,1,2.84.53c-1.88-.52-3.73.07-5.54.58s-3.67,1.05-5.52,1.54L267,386a14.88,14.88,0,0,1-2.9.59A13.8,13.8,0,0,1,258.5,385.18Z" style="fill:#263238"></path><path d="M246.66,398.61c6.19.52,15.57.23,18.31-.43s12.74-4.5,13.42-7.65c.86-3.95-7.38-2-10.83-1.26s-8.19-.92-8.19-.92Z" style="fill:#eb9481"></path><path d="M278.45,390a1.93,1.93,0,0,0-1.29-1.72,5.81,5.81,0,0,0-2.28-.11,26.43,26.43,0,0,0-4.57.92,17.47,17.47,0,0,1-4.74.91,15.35,15.35,0,0,1-4.77-.86c-3-1-5.81-2.57-8.75-3.51a20.09,20.09,0,0,0-4.59-.74,23,23,0,0,0-4.69.2,19.6,19.6,0,0,1,4.7-.6,20.17,20.17,0,0,1,4.76.46c3.14.74,6,2.29,8.89,3.24a15.77,15.77,0,0,0,4.47.89,19.26,19.26,0,0,0,4.54-.7,24.18,24.18,0,0,1,4.72-.66,5.8,5.8,0,0,1,2.4.33,1.82,1.82,0,0,1,.92.79A2.51,2.51,0,0,1,278.45,390Z" style="fill:#263238"></path><path d="M184.57,363.6l14.75-20s-8-9.6-13.15-14.29c-6.84-6.2-11.76-5.17-10.45,6.07C176.59,342.92,184.57,363.6,184.57,363.6Z" style="fill:#92E3A9"></path><g style="opacity:0.2"><path d="M184.57,363.6l14.75-20s-8-9.6-13.15-14.29c-6.84-6.2-11.76-5.17-10.45,6.07C176.59,342.92,184.57,363.6,184.57,363.6Z"></path></g><path d="M184.17,360.18c2-3.06,3.93-6.08,6.05-9,1.06-1.46,5.59-7.1,6.67-8.54.06-.08.17,0,.12.09-1.16,1.91-5.4,7.69-6.46,9.15-2.12,2.92-4.2,5.45-6.26,8.42C184.24,360.36,184.12,360.26,184.17,360.18Z" style="fill:#263238"></path><path d="M175.72,335.4c.87,7.52,8.85,28.21,8.85,28.21l12.76-17.31-18.74-20.69h0C176.19,326.05,175,329.15,175.72,335.4Z" style="opacity:0.1"></path><path d="M141.91,389.84c.94,1,62.21,0,62.21,0,.84-1-9.8-43.5-22.8-62-4-5.77-14.33-6.28-18.3,0C152.79,344.07,141.09,389,141.91,389.84Z" style="fill:#92E3A9"></path><g style="opacity:0.2"><path d="M141.91,389.84c.94,1,62.21,0,62.21,0,.84-1-9.8-43.5-22.8-62-4-5.77-14.33-6.28-18.3,0C152.79,344.07,141.09,389,141.91,389.84Z"></path></g><path d="M202.92,383.06H143.18c.36-1.48.79-3.15,1.27-5h57.2C202.14,379.91,202.57,381.58,202.92,383.06Zm-3.73-13.58H146.86q-.59,2-1.11,3.87h54.58Q199.79,371.48,199.19,369.48Zm-2.08-6.56H148.84c-.14.46-.29.92-.42,1.37h49.13C197.41,363.84,197.26,363.38,197.11,362.92Zm-2.1-6.11h-44.2c-.08.23-.16.46-.23.69h44.68C195.17,357.27,195.09,357,195,356.81Z" style="fill:#92E3A9"></path><path d="M167.26,333.81c3.23,1.12,9.41-3.35,12.07-7.21.18-.27,0-3.27.06-6.92,0-2.22.09-4.68.32-6.93,0-.46-14.44,2-14.44,2a36,36,0,0,1,.49,8.76,5.16,5.16,0,0,1-.2.92,1.31,1.31,0,0,1,0,.15C165.07,326.29,164.15,332.73,167.26,333.81Z" style="fill:#eb9481"></path><path d="M178.84,312.72c-1,3.73-4.34,12.67-11.87,12.07a8.39,8.39,0,0,1-1.44-.22,1.55,1.55,0,0,1,0-.15,6.37,6.37,0,0,0,.19-.91,36,36,0,0,0-.49-8.77S175.73,313,178.84,312.72Z" style="fill:#263238"></path><path d="M181.31,294.7c1.72,5-.41,19.56-3.86,22.92-5,4.87-13.46,5.63-17.67-.45-4.08-5.89-1-24.86,2.91-27.94C168.41,284.68,178.78,287.36,181.31,294.7Z" style="fill:#eb9481"></path><path d="M172.82,301.46c-.42-.16-.79-.37-1.19-.56a2.12,2.12,0,0,1-1.11-.81.68.68,0,0,1,.19-.8,1.66,1.66,0,0,1,1.71,0,2.52,2.52,0,0,1,1.31,1.2A.73.73,0,0,1,172.82,301.46Z" style="fill:#263238"></path><path d="M162.58,300.26c.45,0,.86-.13,1.31-.2a2.08,2.08,0,0,0,1.28-.46.66.66,0,0,0,.05-.82,1.7,1.7,0,0,0-1.64-.49,2.43,2.43,0,0,0-1.59.79A.72.72,0,0,0,162.58,300.26Z" style="fill:#263238"></path><path d="M170,313c-.26.21-.53.51-.89.5a2.64,2.64,0,0,1-1-.36,0,0,0,0,0,0,.05,1.3,1.3,0,0,0,1.2.66,1,1,0,0,0,.86-.79A.06.06,0,0,0,170,313Z" style="fill:#263238"></path><path d="M169.24,309.89a3.38,3.38,0,0,1-2.4,1.27,4.11,4.11,0,0,1-1.21-.07.86.86,0,0,1-.23,0l-.22-.05a.25.25,0,0,1-.17-.24h0a.3.3,0,0,1,0-.1h0v-.09c.06-.76.25-1.91.25-1.91-.29.11-1.78.61-1.71.21a50,50,0,0,1,2.33-10,.09.09,0,0,1,.18,0c-.39,3.17-1.32,6.24-1.76,9.41a6.08,6.08,0,0,1,1.64-.32c.1,0-.41,2.22-.41,2.56v0a4.73,4.73,0,0,0,3.6-.73C169.24,309.74,169.31,309.82,169.24,309.89Z" style="fill:#263238"></path><path d="M166.11,310.81a4,4,0,0,0,1.53,1.33,1.75,1.75,0,0,0,1.09.13c.8-.16.87-.89.76-1.52a4.28,4.28,0,0,0-.31-1A5.15,5.15,0,0,1,166.11,310.81Z" style="fill:#263238"></path><path d="M167.64,312.14a1.75,1.75,0,0,0,1.09.13c.8-.16.87-.89.76-1.52A1.87,1.87,0,0,0,167.64,312.14Z" style="fill:#ff9bbc"></path><path d="M164.4,303.11s-.09,0-.1.08c-.12,1-.44,2.15-1.41,2.34,0,0,0,.06,0,.06C164,305.61,164.44,304.09,164.4,303.11Z" style="fill:#263238"></path><path d="M164.25,304.21a1.5,1.5,0,0,1-.46.68,1.13,1.13,0,0,1-.87.23,1,1,0,0,1-.72-.55,1.8,1.8,0,0,1-.17-.8,3.87,3.87,0,0,1,.05-.49,2.17,2.17,0,0,1,.39-.94,3.18,3.18,0,0,0-.09.74,4.72,4.72,0,0,0,0,.66c.07.45.26.85.6.89s.68-.17.89-.58a8.35,8.35,0,0,0,.51-1.33A3.18,3.18,0,0,1,164.25,304.21Z" style="fill:#263238"></path><path d="M170.49,304s.07.06.06.1c-.24,1-.36,2.17.47,2.69,0,0,0,.07,0,.06C169.94,306.47,170.1,304.91,170.49,304Z" style="fill:#263238"></path><path d="M170.23,305.08a1.53,1.53,0,0,0,.19.81,1.13,1.13,0,0,0,.73.52,1,1,0,0,0,.87-.25,1.84,1.84,0,0,0,.44-.69,2.52,2.52,0,0,0,.13-.47,2.15,2.15,0,0,0,0-1,3.21,3.21,0,0,1-.18.71,3.78,3.78,0,0,1-.28.61c-.22.4-.54.7-.87.61s-.57-.4-.62-.86a6.76,6.76,0,0,1,0-1.42A3.23,3.23,0,0,0,170.23,305.08Z" style="fill:#263238"></path><path d="M183,305.92c-3.89.39-6.07-4.19-5.27-8,0,0-10.32,1.69-11.07-6.62a8.16,8.16,0,0,1-6.62,3.94l-1.07,3.11c-1.07-.28-2.3-3.27.23-5.71a10,10,0,0,1,3-6.74,5.68,5.68,0,0,1,6.07-1,8.59,8.59,0,0,1,6.2-1.73A7.34,7.34,0,0,1,180,287s5.16.82,6.15,4.44a7.6,7.6,0,0,1-.83,6.13s1.33,1.39.77,4.52C185.72,304.09,184.13,305.8,183,305.92Z" style="fill:#263238"></path><path d="M166.84,290.6a9.83,9.83,0,0,0,0,2,8.19,8.19,0,0,0,.44,2,5.26,5.26,0,0,0,2.49,2.91,8.53,8.53,0,0,0,3.85.84c.67,0,1.35,0,2-.11s1.35-.19,2-.27c-.66.18-1.33.33-2,.5s-1.37.17-2.05.25a8.32,8.32,0,0,1-4.09-.79A5.47,5.47,0,0,1,167,294.7,8.15,8.15,0,0,1,166.84,290.6Z" style="fill:#263238"></path><path d="M161.64,295.57a10.87,10.87,0,0,0,3.09-1.79,6.34,6.34,0,0,0,1.18-1.3,8.31,8.31,0,0,0,.82-1.6,4.38,4.38,0,0,1-.51,1.79,4.79,4.79,0,0,1-1.17,1.48,6.49,6.49,0,0,1-1.61,1A5.65,5.65,0,0,1,161.64,295.57Z" style="fill:#263238"></path><path d="M178.64,306.63s3.21-4.75,5.36-3.61-.21,8-2.7,8.94a2.53,2.53,0,0,1-3.42-1.31Z" style="fill:#eb9481"></path><path d="M183.27,305a0,0,0,0,1,0,.07A6.45,6.45,0,0,0,180,309.1a1.4,1.4,0,0,1,2.09-.42s0,.11,0,.1a1.56,1.56,0,0,0-1.71.57,7.27,7.27,0,0,0-.81,1.41c-.08.15-.36.07-.3-.11v0C179.19,308.38,180.88,305.22,183.27,305Z" style="fill:#263238"></path></g></svg>